<svg width="54" height="24" viewBox="0 0 54 24" fill="none" xmlns="http://www.w3.org/2000/svg">
<path d="M0 12C0 5.37258 5.37258 0 12 0H54V24H12C5.37258 24 0 18.6274 0 12Z" fill="white"/>
<path fill-rule="evenodd" clip-rule="evenodd" d="M26.3671 5.63301C24.5075 3.77337 21.4924 3.77337 19.6328 5.63301C17.7731 7.49265 17.7731 10.5077 19.6328 12.3674L23.6328 16.3674L26.9999 19.7345L30.3671 16.3674L34.3671 12.3674C36.2268 10.5077 36.2268 7.49265 34.3671 5.63301C32.5075 3.77337 29.4924 3.77337 27.6328 5.63301L26.9999 6.26584L26.3671 5.63301ZM25.357 6.64316C24.0552 5.34142 21.9447 5.34142 20.6429 6.64316C19.3412 7.94491 19.3412 10.0555 20.6429 11.3572L24.6429 15.3572L26.9999 17.7142L29.357 15.3572L33.357 11.3572C34.6587 10.0555 34.6587 7.94491 33.357 6.64316C32.0552 5.34142 29.9447 5.34142 28.6429 6.64316L26.9999 8.28614L25.357 6.64316Z" fill="#FF0099"/>
</svg>
