<svg width="54" height="24" viewBox="0 0 54 24" fill="none" xmlns="http://www.w3.org/2000/svg">
<path d="M0 12C0 5.37258 5.37258 0 12 0H54V24H12C5.37258 24 0 18.6274 0 12Z" fill="white"/>
<path d="M25.3334 16.6667C25.3334 17.0203 25.1929 17.3594 24.9429 17.6095C24.6928 17.8595 24.3537 18 24.0001 18H12.0001C11.6465 18 11.3073 17.8595 11.0573 17.6095C10.8072 17.3594 10.6667 17.0203 10.6667 16.6667V9.33333C10.6667 8.97971 10.8072 8.64057 11.0573 8.39052C11.3073 8.14048 11.6465 8 12.0001 8H14.6667L16.0001 6H20.0001L21.3334 8H24.0001C24.3537 8 24.6928 8.14048 24.9429 8.39052C25.1929 8.64057 25.3334 8.97971 25.3334 9.33333V16.6667Z" stroke="#003463" stroke-width="1.33333" stroke-linecap="round" stroke-linejoin="round"/>
<path d="M17.9999 15.3333C19.4727 15.3333 20.6666 14.1394 20.6666 12.6667C20.6666 11.1939 19.4727 10 17.9999 10C16.5272 10 15.3333 11.1939 15.3333 12.6667C15.3333 14.1394 16.5272 15.3333 17.9999 15.3333Z" stroke="#003463" stroke-width="1.33333" stroke-linecap="round" stroke-linejoin="round"/>
<path d="M36.3746 14.625C36.9099 14.625 37.1776 14.8523 37.1776 15.307C37.1776 15.769 36.9099 16 36.3746 16H32.6126C32.0699 16 31.7986 15.769 31.7986 15.307C31.7986 14.8523 32.0699 14.625 32.6126 14.625H33.6356V10.126L32.6676 10.709C32.5576 10.775 32.4476 10.808 32.3376 10.808C32.1543 10.808 31.9966 10.731 31.8646 10.577C31.7399 10.423 31.6776 10.2507 31.6776 10.06C31.6776 9.80333 31.7913 9.609 32.0186 9.477L33.7566 8.432C34.0133 8.278 34.2699 8.201 34.5266 8.201C34.7686 8.201 34.9666 8.278 35.1206 8.432C35.2746 8.57867 35.3516 8.78033 35.3516 9.037V14.625H36.3746ZM40.7043 16.099C39.7656 16.099 39.047 15.758 38.5483 15.076C38.057 14.394 37.8113 13.4077 37.8113 12.117C37.8113 10.8337 38.057 9.851 38.5483 9.169C39.047 8.487 39.7656 8.146 40.7043 8.146C41.643 8.146 42.358 8.487 42.8493 9.169C43.348 9.851 43.5973 10.8337 43.5973 12.117C43.5973 13.4077 43.348 14.394 42.8493 15.076C42.358 15.758 41.643 16.099 40.7043 16.099ZM40.7043 14.79C41.1296 14.79 41.4376 14.5773 41.6283 14.152C41.8263 13.7267 41.9253 13.0483 41.9253 12.117C41.9253 11.1783 41.8263 10.5 41.6283 10.082C41.4376 9.664 41.1296 9.455 40.7043 9.455C40.279 9.455 39.9673 9.66767 39.7693 10.093C39.5786 10.511 39.4833 11.1857 39.4833 12.117C39.4833 13.0483 39.5786 13.7267 39.7693 14.152C39.9673 14.5773 40.279 14.79 40.7043 14.79Z" fill="#003463"/>
</svg>
