<svg width="600" height="410" viewBox="0 0 600 410" fill="none" xmlns="http://www.w3.org/2000/svg">
<path d="M227.155 390.12C227.155 400.789 177.124 409.442 115.406 409.442C53.6876 409.442 3.65625 400.789 3.65625 390.12C3.65625 387.452 6.77897 384.914 12.4291 382.606C28.8782 375.875 66.7529 371.092 111.27 370.815C112.643 370.805 114.022 370.799 115.406 370.799C177.124 370.799 227.155 379.452 227.155 390.12Z" fill="#363738"/>
<path opacity="0.1" d="M111.268 370.815C106.26 378.978 99.4696 385.902 91.4051 391.068C83.3405 396.233 74.2113 399.505 64.7018 400.64C55.1923 401.774 45.5495 400.741 36.4961 397.618C27.4428 394.495 19.214 389.363 12.4268 382.606C28.8759 375.875 66.7506 371.092 111.268 370.815Z" fill="#212629"/>
<path d="M58.4857 390.642C90.7865 390.642 116.971 362.587 116.971 327.979C116.971 293.371 90.7865 265.316 58.4857 265.316C26.1849 265.316 0 293.371 0 327.979C0 362.587 26.1849 390.642 58.4857 390.642Z" fill="#0099FF"/>
<path d="M130.249 43.5186C138.541 75.4647 165.293 96.1128 190.06 89.6839L130.249 43.5186Z" fill="#0070BA"/>
<path d="M190.06 89.6834C181.674 57.3783 197.254 25.4321 224.893 18.2578L190.06 89.6834Z" fill="#FF0099"/>
<path d="M147.236 42.2002C155.113 72.5456 174.267 93.7834 190.061 89.6838L147.236 42.2002Z" fill="#FF0099"/>
<path d="M190.061 89.6833C179.346 48.4046 196.526 8.29238 228.472 0L190.061 89.6833Z" fill="#0070BA"/>
<path d="M180.738 92.5377C180.738 92.5377 187.042 90.6925 188.603 88.8317C190.164 86.9708 197.601 83.3023 198.644 85.366C199.687 87.4298 211.018 93.7649 203.858 95.685C196.699 97.6052 186.898 98.8946 184.685 98.2264C182.471 97.5582 180.738 92.5377 180.738 92.5377Z" fill="#C9CED1"/>
<path opacity="0.2" d="M203.789 94.8907C196.629 96.8108 186.829 98.1003 184.615 97.4321C182.929 96.9232 181.523 93.8921 180.948 92.4746C180.815 92.5153 180.738 92.5379 180.738 92.5379C180.738 92.5379 182.471 97.5585 184.685 98.2267C186.898 98.8948 196.699 97.6054 203.858 95.6853C205.925 95.131 206.449 94.2085 206.126 93.1274C206.01 93.8614 205.327 94.4782 203.789 94.8907Z" fill="#212629"/>
<path d="M600 65.8379H179.112V309.702H600V65.8379Z" fill="#E0F3FF"/>
<path opacity="0.3" d="M419.843 139.858H205.033C200.615 139.858 197.033 143.44 197.033 147.858V252.746C197.033 257.165 200.615 260.746 205.033 260.746H419.843C424.261 260.746 427.843 257.165 427.843 252.746V147.858C427.843 143.44 424.261 139.858 419.843 139.858Z" fill="#FF0099"/>
<path d="M528.174 134.589H439.599C438.494 134.589 437.599 135.484 437.599 136.589V137.71C437.599 138.815 438.494 139.71 439.599 139.71H528.174C529.278 139.71 530.174 138.815 530.174 137.71V136.589C530.174 135.484 529.278 134.589 528.174 134.589Z" fill="#67696B"/>
<path d="M570.325 144.043H439.599C438.494 144.043 437.599 144.938 437.599 146.043V147.164C437.599 148.269 438.494 149.164 439.599 149.164H570.325C571.429 149.164 572.325 148.269 572.325 147.164V146.043C572.325 144.938 571.429 144.043 570.325 144.043Z" fill="#67696B"/>
<path d="M528.174 166.891H439.599C438.494 166.891 437.599 167.786 437.599 168.891V170.012C437.599 171.116 438.494 172.012 439.599 172.012H528.174C529.278 172.012 530.174 171.116 530.174 170.012V168.891C530.174 167.786 529.278 166.891 528.174 166.891Z" fill="#67696B"/>
<path d="M528.174 204.709H439.599C438.494 204.709 437.599 205.604 437.599 206.709V207.83C437.599 208.935 438.494 209.83 439.599 209.83H528.174C529.278 209.83 530.174 208.935 530.174 207.83V206.709C530.174 205.604 529.278 204.709 528.174 204.709Z" fill="#67696B"/>
<path d="M570.325 176.346H439.599C438.494 176.346 437.599 177.241 437.599 178.346V179.467C437.599 180.571 438.494 181.467 439.599 181.467H570.325C571.429 181.467 572.325 180.571 572.325 179.467V178.346C572.325 177.241 571.429 176.346 570.325 176.346Z" fill="#67696B"/>
<path d="M570.325 185.8H439.599C438.494 185.8 437.599 186.696 437.599 187.8V188.921C437.599 190.026 438.494 190.921 439.599 190.921H570.325C571.429 190.921 572.325 190.026 572.325 188.921V187.8C572.325 186.696 571.429 185.8 570.325 185.8Z" fill="#67696B"/>
<path d="M570.325 195.255H439.599C438.494 195.255 437.599 196.151 437.599 197.255V198.377C437.599 199.481 438.494 200.377 439.599 200.377H570.325C571.429 200.377 572.325 199.481 572.325 198.377V197.255C572.325 196.151 571.429 195.255 570.325 195.255Z" fill="#67696B"/>
<path d="M482.053 227.557H441.599C439.389 227.557 437.599 229.348 437.599 231.557V236.951C437.599 239.16 439.389 240.951 441.599 240.951H482.053C484.262 240.951 486.053 239.16 486.053 236.951V231.557C486.053 229.348 484.262 227.557 482.053 227.557Z" fill="#FF0099"/>
<path d="M164.224 213.01C164.224 213.01 172.922 188.365 179.204 196.097C185.486 203.828 169.539 216.876 169.539 216.876L164.224 213.01Z" fill="#FFD8D8"/>
<path d="M123.149 188.849L128.382 190.788C128.382 190.788 130.881 201.896 129.914 203.829C128.948 205.762 128.465 204.312 129.914 208.178C131.364 212.044 135.713 222.192 136.196 223.642C136.68 225.091 164.224 214.46 164.224 209.145C164.224 209.145 170.022 215.91 172.922 217.36C172.922 217.36 141.029 240.555 136.68 243.454C132.331 246.353 129.914 244.904 126.049 241.521C122.183 238.139 105.753 210.111 105.753 210.111L123.149 188.849Z" fill="#0070BA"/>
<path d="M137.163 360.395C137.163 360.395 136.68 365.711 135.713 366.194C134.747 366.677 127.498 378.758 135.713 381.174C143.928 383.59 148.761 382.624 150.693 383.59C152.626 384.557 186.452 386.49 186.936 381.174C187.419 375.859 170.506 374.892 170.506 374.892C170.506 374.892 155.043 364.745 152.626 359.429C150.21 354.113 137.163 360.395 137.163 360.395Z" fill="#212629"/>
<path d="M39.0678 370.06C39.0678 370.06 27.4703 389.872 30.3696 392.289C33.269 394.705 61.5055 403.51 65.6453 403.886C70.9609 404.369 74.8267 400.02 70.4776 397.604C66.1286 395.188 56.9472 385.04 56.9472 381.658V372.959L39.0678 370.06Z" fill="#212629"/>
<path d="M27.9519 240.554C27.9519 240.554 17.8041 253.118 33.7506 273.414L60.3282 307.24C60.3282 307.24 43.8984 333.334 43.4152 346.865C42.932 360.395 39.5494 357.496 38.5829 363.294C37.6165 369.093 33.2674 366.194 36.65 370.543C40.0326 374.892 52.5966 378.758 56.4624 375.375C60.3282 371.992 60.3282 367.643 60.3282 365.711C60.3282 363.778 67.0934 352.663 67.5767 349.281C68.0599 345.898 85.9394 318.354 85.9394 318.354C85.9394 318.354 91.7381 301.924 84.9729 292.743C78.2077 283.562 73.7372 270.54 73.7372 270.54C73.7372 270.54 93.671 294.676 107.685 300.475C107.685 300.475 113 301.441 112.034 303.857C111.067 306.273 112.034 307.723 113.483 310.139C114.933 312.555 125.081 340.583 128.464 347.831C131.846 355.079 130.396 359.429 134.262 361.845C138.128 364.261 155.524 362.328 155.524 359.912C155.524 357.496 153.108 351.214 151.659 347.831C150.209 344.448 138.611 305.307 139.578 298.542C140.544 291.776 139.095 282.595 131.846 278.729C124.598 274.863 87.8723 243.454 85.9394 243.454C84.0065 243.454 27.9519 240.554 27.9519 240.554Z" fill="#212629"/>
<path d="M125.08 164.687C136.289 164.687 145.375 155.601 145.375 144.392C145.375 133.183 136.289 124.096 125.08 124.096C113.871 124.096 104.784 133.183 104.784 144.392C104.784 155.601 113.871 164.687 125.08 164.687Z" fill="#FFD8D8"/>
<path d="M108.652 146.325C108.652 146.325 102.37 157.439 94.638 158.889C86.9064 160.338 114.934 182.567 114.934 182.567C114.934 182.567 121.699 161.305 127.498 160.338C133.296 159.372 108.652 146.325 108.652 146.325Z" fill="#FFD8D8"/>
<path d="M128.465 191.748C128.465 198.03 109.619 215.91 109.619 215.91L91.7397 230.89C91.7397 230.89 91.2565 236.205 89.3235 236.688C87.3906 237.172 84.9745 237.172 86.9074 240.071C88.8403 242.97 93.6726 249.252 89.3235 250.219C88.0124 250.418 86.6911 250.544 85.3659 250.596C84.2061 250.663 82.8435 250.726 81.3116 250.784C77.7357 250.91 73.261 250.992 68.4142 250.958C67.037 250.953 65.6356 250.937 64.2102 250.91C45.9392 250.547 24.7738 248.445 26.5038 241.521C29.4032 229.923 27.4702 226.057 33.7522 219.775C40.0342 213.493 50.182 191.748 50.182 191.748C50.182 191.748 70.4776 157.439 87.3906 157.439L90.9037 156.516C92.5361 156.086 94.2623 156.18 95.8381 156.786C97.4139 157.391 98.7593 158.477 99.6839 159.889C103.076 165.055 108.426 172.815 111.552 175.318C116.384 179.184 117.138 176.41 117.138 176.41C117.138 176.41 128.465 185.466 128.465 191.748Z" fill="#0070BA"/>
<path d="M85.4571 265.199C85.4571 265.199 99.4707 286.944 90.7726 290.81C82.0745 294.676 77.2422 268.098 77.2422 268.098L85.4571 265.199Z" fill="#FFD8D8"/>
<path d="M111.813 142.099C112.592 142 112.838 141.017 112.969 140.243C113.672 136.098 116.761 132.167 120.911 131.498C122.498 131.287 124.111 131.417 125.643 131.879C127.838 132.482 129.899 133.496 131.715 134.868C132.673 135.593 133.596 136.434 134.749 136.773C135.511 136.997 138.744 138.434 139.5 138.678C141.161 139.212 142.536 140.951 144.246 140.607C145.883 140.277 146.505 138.301 146.768 136.652C147.367 132.896 145.217 127.292 143.08 124.146C141.458 121.758 138.713 120.384 135.968 119.49C132.753 118.514 129.449 117.858 126.105 117.531C121.591 116.997 116.915 116.715 112.589 118.11C108.263 119.505 104.323 122.919 103.516 127.392C103.348 128.324 103.316 129.279 103.11 130.203C102.607 132.457 101.115 134.353 100.245 136.492C99.6173 138.064 99.3258 139.75 99.3894 141.441C99.4531 143.132 99.8704 144.791 100.615 146.311C101.819 148.734 103.915 151.062 103.463 153.731L107.192 150.79C107.731 150.484 108.148 150.002 108.375 149.425C108.601 148.848 108.623 148.211 108.436 147.62L107.894 142.951C107.795 142.096 107.709 141.173 108.136 140.427C109.794 137.531 110.514 142.262 111.813 142.099Z" fill="#212629"/>
<path opacity="0.1" d="M76.7591 231.856L81.311 250.785C76.7203 250.949 70.6462 251.036 64.2096 250.91C62.5859 246.039 61.0347 240.961 59.846 236.206C55.4969 218.809 62.7454 192.232 66.6112 179.668C70.4771 167.104 80.1417 163.721 80.1417 163.721C80.1417 163.721 84.974 165.171 91.2559 169.52C97.5379 173.869 76.7591 231.856 76.7591 231.856Z" fill="#212629"/>
<path opacity="0.1" d="M80.6253 230.889L85.3658 250.595C84.206 250.663 82.8433 250.725 81.3114 250.783C77.7356 250.909 73.2609 250.991 68.4141 250.957C66.6697 245.782 64.9831 240.322 63.7122 235.238C59.3632 217.842 66.6116 191.264 70.4774 178.7C74.3433 166.136 82.7998 179.908 82.7998 179.908C82.7998 179.908 79.4172 171.693 85.6991 176.042C91.9811 180.392 80.6253 230.889 80.6253 230.889Z" fill="#212629"/>
<path d="M82.0733 162.754C82.0733 162.754 72.4087 166.137 68.5429 178.7C64.677 191.264 57.4286 217.842 61.7776 235.238C66.1267 252.635 75.3081 274.38 75.3081 274.38C75.3081 274.38 84.4894 267.615 87.872 269.064L78.6907 230.889C78.6907 230.889 99.4695 172.902 93.1876 168.553C86.9056 164.204 82.0733 162.754 82.0733 162.754Z" fill="#0070BA"/>
<path d="M409.922 127.326H195.112C190.694 127.326 187.112 130.908 187.112 135.326V240.214C187.112 244.632 190.694 248.214 195.112 248.214H409.922C414.34 248.214 417.922 244.632 417.922 240.214V135.326C417.922 130.908 414.34 127.326 409.922 127.326Z" fill="#F5F8FA"/>
<path d="M306.812 216.303C321.237 216.303 332.931 204.588 332.931 190.136C332.931 175.685 321.237 163.97 306.812 163.97C292.387 163.97 280.693 175.685 280.693 190.136C280.693 204.588 292.387 216.303 306.812 216.303Z" fill="#FFE6F5"/>
<path d="M306.811 159.511C300.637 159.511 294.602 161.341 289.469 164.771C284.335 168.201 280.334 173.077 277.972 178.78C275.609 184.484 274.991 190.76 276.196 196.816C277.4 202.871 280.373 208.433 284.738 212.798C289.104 217.164 294.666 220.137 300.721 221.341C306.776 222.546 313.052 221.927 318.756 219.565C324.46 217.202 329.335 213.201 332.765 208.068C336.195 202.935 338.026 196.9 338.026 190.726C338.002 182.455 334.705 174.529 328.856 168.68C323.008 162.831 315.082 159.535 306.811 159.511ZM300.403 207.369L284.405 191.371L288.892 186.884L300.418 198.41L324.744 174.083L329.232 178.57L300.403 207.369Z" fill="#FF0099"/>
</svg>
