<svg width="375" height="272" viewBox="0 0 375 272" fill="none" xmlns="http://www.w3.org/2000/svg">
<g clip-path="url(#clip0)">
<path d="M160.859 254.378C231.104 254.378 288.048 197.433 288.048 127.189C288.048 56.9444 231.104 0 160.859 0C90.6147 0 33.6703 56.9444 33.6703 127.189C33.6703 197.433 90.6147 254.378 160.859 254.378Z" fill="#F2F2F2"/>
<path d="M50.7197 272C78.5915 272 101.186 268.385 101.186 263.925C101.186 259.466 78.5915 255.851 50.7197 255.851C22.848 255.851 0.253418 259.466 0.253418 263.925C0.253418 268.385 22.848 272 50.7197 272Z" fill="#F2F2F2"/>
<path d="M296.914 263.792C340.039 263.792 375 258.199 375 251.299C375 244.398 340.039 238.805 296.914 238.805C253.788 238.805 218.827 244.398 218.827 251.299C218.827 258.199 253.788 263.792 296.914 263.792Z" fill="#F2F2F2"/>
<path d="M279.564 131.207C279.564 131.207 280.229 133.423 276.462 135.417C272.695 137.412 271.587 144.946 276.019 147.162C280.451 149.378 281.78 152.259 279.564 154.254C277.348 156.248 273.359 161.566 278.678 162.896C283.996 164.226 284.661 166.885 283.11 167.993C281.559 169.101 286.655 165.998 286.655 165.998C286.655 165.998 287.542 171.317 292.195 169.987C296.849 168.658 309.924 143.395 303.276 139.849C296.627 136.304 279.564 131.207 279.564 131.207Z" fill="#2F2E41"/>
<path d="M287.596 152.605C287.596 152.605 289.895 160.65 285.872 161.225C283.376 161.614 281.01 162.599 278.976 164.098L286.447 173.867H300.239L308.859 165.247C308.859 165.247 297.365 156.627 299.664 151.455C301.963 146.283 287.596 152.605 287.596 152.605Z" fill="#FFB9B9"/>
<path opacity="0.1" d="M287.596 152.605C287.596 152.605 289.895 160.65 285.872 161.225C283.376 161.614 281.01 162.599 278.976 164.098L286.447 173.867H300.239L308.859 165.247C308.859 165.247 297.365 156.627 299.664 151.455C301.963 146.283 287.596 152.605 287.596 152.605Z" fill="black"/>
<path d="M291.044 252.597L304.262 257.195L313.456 257.769L312.881 249.724L293.917 244.115L291.044 252.597Z" fill="#FFB9B9"/>
<path d="M307.997 250.873C307.997 250.873 307.997 258.919 309.146 258.919C310.295 258.919 325.812 257.195 330.409 258.919C335.006 260.643 341.902 254.321 338.454 250.873C335.006 247.425 329.382 242.253 325.873 243.403C322.363 244.552 307.997 247.425 307.997 247.425V250.873Z" fill="#575A89"/>
<path d="M265.759 243.402C265.759 243.402 258.863 257.194 263.46 258.344C268.057 259.493 273.229 257.769 273.804 257.194C274.379 256.62 282.424 254.321 283.573 255.47C284.723 256.62 284.723 250.873 284.723 250.873L265.759 243.402Z" fill="#575A89"/>
<path d="M271.505 224.438C271.505 224.438 260.587 239.38 268.632 243.402C276.677 247.425 315.18 247.425 318.053 243.402C320.927 239.38 322.076 226.737 318.053 225.588C314.031 224.438 271.505 224.438 271.505 224.438Z" fill="#2F2E41"/>
<path opacity="0.2" d="M271.505 224.438C271.505 224.438 260.587 239.38 268.632 243.402C276.677 247.425 315.18 247.425 318.053 243.402C320.927 239.38 322.076 226.737 318.053 225.588C314.031 224.438 271.505 224.438 271.505 224.438Z" fill="black"/>
<path d="M292.193 156.628C299.493 156.628 305.411 150.71 305.411 143.411C305.411 136.111 299.493 130.193 292.193 130.193C284.894 130.193 278.976 136.111 278.976 143.411C278.976 150.71 284.894 156.628 292.193 156.628Z" fill="#FFB9B9"/>
<path d="M271.505 164.098L282.999 161.8C282.999 161.8 285.872 170.994 295.067 169.27C304.261 167.546 306.56 161.8 306.56 161.8C306.56 161.8 313.456 164.673 314.031 164.673C314.605 164.673 322.076 167.546 322.076 169.27C322.076 170.994 313.456 188.234 313.456 188.234L314.605 219.266L272.08 218.117L274.953 187.66L271.505 164.098Z" fill="#FF0099"/>
<path d="M265.184 179.04C265.184 179.04 261.736 209.497 264.035 211.796C266.333 214.095 275.528 220.416 275.528 220.416V213.52L270.931 204.9L275.528 184.787L265.184 179.04Z" fill="#FFB9B9"/>
<path d="M324.662 178.178C324.662 178.178 322.651 209.497 322.651 210.646C322.651 211.796 317.479 215.818 315.755 215.818C314.031 215.818 312.881 212.945 312.881 212.945L316.904 208.348L314.031 184.786L324.662 178.178Z" fill="#FFB9B9"/>
<path d="M319.203 222.14C319.203 222.14 345.063 207.773 345.637 222.14C346.212 236.507 332.42 242.253 332.42 242.253C332.42 242.253 296.791 252.937 295.354 249.032C293.917 245.127 291.044 238.805 293.343 238.231C295.641 237.656 298.515 236.507 299.664 237.656C300.813 238.805 315.18 229.036 315.18 229.036L319.203 222.14Z" fill="#2F2E41"/>
<path opacity="0.2" d="M331.271 220.416C331.271 220.416 326.099 222.715 324.375 224.439C322.651 226.163 315.18 229.036 315.18 229.036" stroke="black" stroke-width="0.656905" stroke-miterlimit="10"/>
<path d="M274.953 165.248L271.505 164.099C271.505 164.099 258.863 177.316 262.885 180.764C266.908 184.212 269.207 185.361 270.356 186.511C271.505 187.66 277.252 188.235 277.252 188.235L274.953 165.248Z" fill="#FF0099"/>
<path d="M316.904 168.121L322.076 169.27C322.076 169.27 326.099 177.89 327.248 179.04C328.398 180.189 325.524 179.614 323.8 181.913C322.076 184.212 320.352 188.234 316.904 188.234C313.456 188.234 308.859 182.488 308.859 182.488L316.904 168.121Z" fill="#FF0099"/>
<path d="M272.655 227.311C272.655 227.311 250.817 211.795 243.347 223.289C235.876 234.782 275.528 250.298 281.275 252.597C287.021 254.895 292.193 257.194 292.193 257.194C292.193 257.194 297.365 244.551 297.365 242.253C297.365 239.954 293.343 239.954 292.193 239.954C291.044 239.954 285.872 238.805 284.723 237.081C283.573 235.357 272.655 227.311 272.655 227.311Z" fill="#2F2E41"/>
<path opacity="0.2" d="M260.587 223.289C260.587 223.289 266.333 227.886 271.505 229.036C276.677 230.185 278.401 233.058 278.401 233.058" stroke="black" stroke-width="0.656905" stroke-miterlimit="10"/>
<path d="M268.691 201.682L269.15 226.013C269.165 226.817 269.497 227.582 270.074 228.142C270.651 228.702 271.426 229.011 272.229 229.002L317.509 228.493C318.281 228.484 319.02 228.183 319.578 227.65C320.136 227.117 320.472 226.393 320.516 225.622L321.89 201.8C321.914 201.385 321.853 200.971 321.711 200.581C321.569 200.191 321.349 199.835 321.064 199.533C320.78 199.232 320.436 198.991 320.056 198.827C319.675 198.663 319.264 198.578 318.849 198.578H271.736C271.331 198.578 270.931 198.659 270.557 198.816C270.184 198.972 269.846 199.202 269.562 199.491C269.279 199.78 269.055 200.122 268.906 200.498C268.756 200.875 268.683 201.277 268.691 201.682Z" fill="#575A89"/>
<path d="M292.899 126.807C292.899 126.807 293.636 129.262 289.463 131.471C285.289 133.68 284.062 142.027 288.972 144.482C293.881 146.937 295.354 150.128 292.899 152.338C290.445 154.547 286.026 160.439 291.917 161.912C297.809 163.385 298.546 166.33 296.827 167.558C295.109 168.785 300.755 165.348 300.755 165.348C300.755 165.348 301.737 171.24 306.892 169.767C312.048 168.294 317.191 141.52 311.445 134.624C306.101 128.212 292.899 126.807 292.899 126.807Z" fill="#2F2E41"/>
<path d="M291.332 124.28C291.333 120.684 302.093 123.268 306.706 128.29C309.901 131.767 314.753 136.999 310.687 140.686C306.621 144.374 317.656 149.208 320.616 150.674C323.576 152.14 329.42 156.622 324.143 159.629C318.867 162.636 318.952 165.671 320.937 166.39C322.923 167.108 316.559 165.321 316.559 165.321C316.559 165.321 317.202 171.259 311.841 171.231C306.479 171.203 291.098 141.737 294.772 133.547C298.189 125.932 291.332 124.28 291.332 124.28Z" fill="#2F2E41"/>
<path d="M293.662 123.492C279.273 122.625 277.829 133.456 277.829 133.456C277.928 139.724 287.882 136.67 290.647 137.605C293.982 135.205 300.411 130.666 305.009 127.426C301.671 125.075 297.739 123.712 293.662 123.492Z" fill="#2F2E41"/>
<path d="M289.563 192.607C289.563 192.607 276.656 132.116 195.868 88.2344" stroke="#3F3D56" stroke-width="0.656905" stroke-miterlimit="10"/>
<path d="M199.197 86.915L199.358 87.5783L196.091 88.3707L197.12 91.5723L196.47 91.7806L195.217 87.8811L199.197 86.915Z" fill="#3F3D56"/>
<path d="M23.6021 254.416C23.6021 262.077 19.0477 264.753 13.4291 264.753C13.299 264.753 13.169 264.751 13.0393 264.748C12.7789 264.743 12.5211 264.73 12.2663 264.713C7.19565 264.354 3.2561 261.541 3.2561 254.416C3.2561 247.042 12.6791 237.737 13.387 237.049L13.3882 237.047C13.4155 237.021 13.4291 237.008 13.4291 237.008C13.4291 237.008 23.6021 246.754 23.6021 254.416Z" fill="#0099FF"/>
<path d="M13.0585 263.581L16.7793 258.382L13.0492 264.151L13.0393 264.748C12.779 264.743 12.5211 264.73 12.2664 264.713L12.6674 257.048L12.6643 256.988L12.6711 256.977L12.709 256.253L8.9696 250.469L12.7207 255.71L12.7294 255.864L13.0325 250.072L9.83116 244.095L13.0715 249.056L13.387 237.049L13.3883 237.008V237.048L13.3356 246.516L16.5227 242.762L13.3226 247.331L13.2383 252.517L16.214 247.54L13.2259 253.28L13.1788 256.163L17.4989 249.236L13.1627 257.169L13.0585 263.581Z" fill="#3F3D56"/>
<path d="M72.1249 252.43L74.301 250.813C74.301 250.813 75.7414 258.86 74.1341 260.065C72.5267 261.271 66.4991 263.28 66.4991 265.691C66.4991 268.102 52.8365 271.317 52.4346 267.7C52.0328 264.084 53.6401 262.074 53.6401 262.074C53.6401 262.074 60.0696 255.645 60.8733 254.439C61.677 253.234 63.6862 250.823 63.6862 250.823L72.1249 252.43Z" fill="#2F2E41"/>
<path d="M39.9773 152.372C39.9773 152.372 40.0376 152.726 40.142 153.373C40.2385 153.948 40.3711 154.759 40.5318 155.76C42.2196 166.059 47.1422 196.378 46.8086 197.379C46.4068 198.584 43.5939 203.004 46.8086 204.21C47.118 204.327 47.4515 204.704 47.8092 205.299C48.4995 206.58 49.0685 207.923 49.509 209.309C51.4258 214.871 53.4752 223.772 54.6606 229.936C55.179 232.644 55.5326 234.822 55.6371 235.964C55.6734 236.227 55.6774 236.494 55.6491 236.759C55.2473 238.367 58.0602 243.992 59.2657 245.6C60.4712 247.207 62.4804 248.814 62.0786 250.422C61.6768 252.029 72.1246 256.449 73.3302 253.637C74.5357 250.824 74.5357 249.216 74.9375 248.413C75.3394 247.609 75.7412 241.983 73.732 241.179C71.7228 240.376 72.9283 226.311 70.9191 223.498C70.2481 222.562 69.2234 219.392 68.1504 215.578C67.7285 214.083 67.3025 212.492 66.8846 210.897C65.1889 204.359 63.686 197.781 63.686 197.781L64.0878 150.765L41.9865 147.952L41.4199 149.202L40.2907 151.681L39.9773 152.372Z" fill="#2F2E41"/>
<path d="M38.7719 229.525C38.7719 229.525 35.5572 226.311 33.9498 229.525C32.3425 232.74 30.7351 245.197 27.9222 248.01C25.1093 250.823 21.4927 264.888 25.5111 265.691C29.5296 266.495 33.9498 264.486 34.3517 262.075C34.7535 259.664 43.1922 247.206 43.1922 246.001C43.1922 244.795 37.5664 240.375 37.5664 240.375L38.7719 229.525Z" fill="#2F2E41"/>
<path d="M88.1985 130.271C88.1985 130.271 82.9745 177.286 81.769 181.706C80.5635 186.127 74.134 203.004 72.1248 205.817C70.1156 208.63 57.2566 231.535 55.6493 232.74C54.0419 233.946 50.8272 237.161 50.8272 237.161C50.8272 237.161 44.7995 243.188 43.9958 244.394C43.1922 245.599 36.3608 241.983 35.959 239.572C35.5572 237.161 36.3608 233.142 36.7627 231.535C37.1645 229.927 35.959 227.516 37.1645 226.311C38.3701 225.105 44.3977 219.078 44.3977 216.265C44.3977 213.452 54.8456 196.976 58.864 193.36C62.8824 189.743 62.0787 183.716 62.0787 183.716V159.203L39.9774 152.372C39.9774 152.372 41.183 133.084 43.9958 133.084C46.8087 133.084 83.7782 126.654 88.1985 130.271Z" fill="#2F2E41"/>
<path d="M55.6493 63.1632C62.9731 63.1632 68.9101 57.2261 68.9101 49.9024C68.9101 42.5787 62.9731 36.6416 55.6493 36.6416C48.3256 36.6416 42.3885 42.5787 42.3885 49.9024C42.3885 57.2261 48.3256 63.1632 55.6493 63.1632Z" fill="#9F616A"/>
<path d="M60.0696 60.3499C60.0696 60.3499 61.677 66.3775 63.6862 67.9849C65.6954 69.5923 58.4622 76.4236 58.4622 76.4236L44.7996 77.2273L42.3885 69.5923C42.3885 69.5923 46.8088 60.7517 45.6033 55.126C44.3978 49.5002 60.0696 60.3499 60.0696 60.3499Z" fill="#9F616A"/>
<path d="M65.6952 67.1816C65.6952 67.1816 62.0786 67.5835 61.2749 68.789C60.4712 69.9945 54.8454 73.6111 50.4252 72.8074C46.0049 72.0037 43.192 70.7982 42.3883 71.2001C41.5847 71.6019 39.9773 80.0406 39.9773 80.0406L44.3976 92.8995L43.5939 128.262L42.3883 137.906C42.3883 137.906 39.9773 134.691 49.6215 136.7C59.2657 138.71 71.7228 135.093 75.7412 134.691C79.7597 134.289 86.591 133.084 86.9928 130.673C87.3946 128.262 85.7873 119.421 85.7873 119.421L79.3578 92.4977L75.3394 78.0314L65.6952 67.1816Z" fill="#0099FF"/>
<path d="M61.894 65.3684C61.894 65.3684 65.2932 63.5655 66.4987 65.1729C67.7042 66.7802 82.9742 69.1913 82.9742 70.3968C82.9742 71.6023 86.189 104.152 85.3853 106.964C84.5816 109.777 86.9927 112.992 86.9927 112.992L89.8055 125.047C89.8055 125.047 97.4405 147.952 94.2258 148.756C91.0111 149.56 88.1982 148.756 86.9927 148.756C85.7871 148.756 86.189 133.486 82.9742 129.468C79.7595 125.449 75.3392 115.403 74.5356 113.394C73.7319 111.385 63.6858 83.6576 64.0877 80.4429C64.4895 77.2281 61.894 65.3684 61.894 65.3684Z" fill="#D0CDE1"/>
<path d="M45.2015 67.1816C45.2015 67.1816 41.9867 67.1816 41.5849 67.9853C41.183 68.789 37.1646 74.013 35.5572 75.2185C33.9499 76.424 28.3241 81.648 28.3241 82.8535C28.3241 84.059 39.9775 92.8995 39.9775 92.8995C39.9775 92.8995 44.7996 116.608 42.3886 124.645C39.9775 132.682 36.3609 151.97 37.9683 153.176C39.5757 154.381 43.1922 154.783 43.1922 153.176C43.1922 151.568 45.6033 134.289 47.6125 130.673C49.6217 127.056 55.6494 104.151 53.2383 97.7216C50.8272 91.2922 45.2015 67.1816 45.2015 67.1816Z" fill="#D0CDE1"/>
<path d="M98.2443 106.964C98.2443 106.964 98.6461 119.421 94.2259 125.85C89.8056 132.28 86.9927 139.513 86.9927 139.513C86.9927 139.513 79.7596 137.504 78.554 135.093C77.3485 132.682 69.7135 134.691 69.7135 133.887C69.7135 133.084 78.9559 129.065 79.7596 128.262C80.5632 127.458 83.3761 127.458 84.9835 125.85C86.5909 124.243 86.9927 120.626 86.9927 120.626L88.6001 110.179L98.2443 106.964Z" fill="#9F616A"/>
<path d="M64.7825 41.7261C65.8027 41.6334 66.8548 41.5315 67.7565 41.0452C69.7767 39.9557 70.3124 36.8532 68.7745 35.1493C68.3505 34.7158 67.8762 34.3344 67.3617 34.0133L64.3072 31.9343C62.9563 31.0147 61.5734 30.0801 59.9977 29.6467C58.5726 29.2546 57.0674 29.2949 55.5921 29.3866C52.7283 29.5646 49.8468 29.9323 47.1531 30.921C44.4595 31.9098 41.9469 33.564 40.3155 35.9245C37.7292 39.6665 37.6937 44.7134 39.1181 49.0334C40.5425 53.3535 43.2483 57.1153 45.9144 60.801L47.2978 54.0512C47.421 53.45 47.5803 52.7911 48.0803 52.4352C49.3231 51.5509 50.8432 53.3666 52.3685 53.3549C53.3485 53.3473 54.1713 52.5412 54.5427 51.6343C54.9141 50.7273 54.9386 49.7229 55.0245 48.7466C55.2065 46.6788 55.9293 43.8016 57.8875 42.6612C59.7123 41.5985 62.7314 41.9124 64.7825 41.7261Z" fill="#2F2E41"/>
<path opacity="0.1" d="M64.0386 152.697C64.0386 152.697 62.6814 191.954 61.8777 193.159C61.074 194.365 61.8777 152.573 61.8777 152.573L64.0386 152.697Z" fill="black"/>
<path d="M79.7598 70.3965H82.9745C82.9745 70.3965 96.6371 88.8812 95.0298 90.0867C93.4224 91.2923 95.0298 94.507 95.0298 94.507L98.2445 100.535C98.2445 100.535 102.263 104.151 101.057 104.955C99.8519 105.759 98.2445 108.973 98.2445 108.973C98.2445 108.973 90.2077 107.768 87.7966 112.59L82.5848 106.01L79.7598 70.3965Z" fill="#D0CDE1"/>
<path d="M80.8958 76.3422L69.8647 80.8975L78.3535 101.454L89.3846 96.899L80.8958 76.3422Z" fill="#2F2E41"/>
<path d="M79.6028 88.3983C80.8213 87.8951 81.4344 86.5798 80.9721 85.4605C80.5099 84.3412 79.1475 83.8417 77.929 84.3448C76.7105 84.848 76.0975 86.1633 76.5597 87.2826C77.0219 88.4019 78.3844 88.9014 79.6028 88.3983Z" fill="#6C63FF"/>
<path d="M71.7229 102.544C71.7229 102.544 42.7903 126.654 37.9682 119.019C33.1461 111.384 43.1922 104.955 43.1922 104.955C43.1922 104.955 52.0327 105.356 62.0787 98.927L72.1248 94.5067C72.1248 94.5067 81.296 81.4131 84.4213 86.399C87.5466 91.385 79.0865 100.063 71.7229 102.544Z" fill="#9F616A"/>
<path d="M32.7443 81.2461L28.324 82.8535V94.9087L26.7167 97.3198C26.7167 97.3198 27.1185 102.142 28.324 103.347C29.5296 104.553 31.9406 104.151 31.1369 106.964C30.6539 108.798 30.5176 110.706 30.7351 112.59C30.7351 112.59 37.9682 121.832 38.3701 120.627C38.7719 119.421 44.3977 104.553 45.2014 104.553C46.0051 104.553 37.1646 81.2461 37.1646 81.2461H32.7443Z" fill="#D0CDE1"/>
<path d="M85.5864 142.125C85.5864 142.125 89.7414 138.107 87.6639 137.906C85.5864 137.705 78.3533 133.687 77.1477 135.696C75.9422 137.705 85.5864 142.125 85.5864 142.125Z" fill="#2F2E41"/>
<path d="M164.61 65.4698C167.811 65.4698 170.407 64.0958 170.407 62.4009C170.407 60.706 167.811 59.332 164.61 59.332C161.408 59.332 158.813 60.706 158.813 62.4009C158.813 64.0958 161.408 65.4698 164.61 65.4698Z" fill="#8ED16F"/>
<path d="M186.774 72.6302C173.703 67.6935 160.632 67.6935 147.561 72.6302V56.6038C160.347 52.7454 173.988 52.7454 186.774 56.6038V72.6302Z" stroke="#3F3D56" stroke-width="0.656905" stroke-miterlimit="10"/>
<path d="M181.318 69.3166C171.884 65.7536 162.45 65.7536 153.016 69.3166V57.7497C162.245 54.9649 172.09 54.9649 181.318 57.7497V69.3166Z" stroke="#3F3D56" stroke-width="0.656905" stroke-miterlimit="10"/>
<path d="M166.656 64.1056C169.857 64.1056 172.453 62.7316 172.453 61.0367C172.453 59.3418 169.857 57.9678 166.656 57.9678C163.454 57.9678 160.859 59.3418 160.859 61.0367C160.859 62.7316 163.454 64.1056 166.656 64.1056Z" stroke="#3F3D56" stroke-width="0.656905" stroke-miterlimit="10"/>
<path d="M168.872 84.6896C172.009 84.0494 174.277 82.1841 173.938 80.5234C173.6 78.8628 170.782 78.0355 167.645 78.6757C164.508 79.316 162.24 81.1812 162.579 82.8419C162.918 84.5025 165.736 85.3298 168.872 84.6896Z" fill="#8ED16F"/>
<path d="M192.021 87.2733C178.226 85.0502 165.419 87.6641 153.599 95.1151L150.394 79.4123C162.151 73.0749 175.516 70.3471 188.816 71.5706L192.021 87.2733Z" stroke="#3F3D56" stroke-width="0.656905" stroke-miterlimit="10"/>
<path d="M186.012 85.1164C176.057 83.5119 166.813 85.3985 158.282 90.7761L155.969 79.4428C164.454 74.8689 174.1 72.9001 183.699 73.7831L186.012 85.1164Z" stroke="#3F3D56" stroke-width="0.656905" stroke-miterlimit="10"/>
<path d="M170.604 82.9435C173.741 82.3033 176.009 80.438 175.67 78.7774C175.331 77.1167 172.513 76.2894 169.377 76.9297C166.24 77.5699 163.972 79.4351 164.311 81.0958C164.65 82.7564 167.467 83.5837 170.604 82.9435Z" stroke="#3F3D56" stroke-width="0.656905" stroke-miterlimit="10"/>
<path d="M172.839 101.159C172.957 99.4685 170.463 97.9177 167.269 97.6954C164.076 97.4732 161.391 98.6637 161.274 100.355C161.156 102.045 163.65 103.596 166.843 103.818C170.037 104.041 172.722 102.85 172.839 101.159Z" fill="#8ED16F"/>
<path d="M188.457 112.501C175.76 106.669 162.721 105.761 149.338 109.779L150.451 93.791C163.474 90.8296 177.082 91.7765 189.57 96.5132L188.457 112.501Z" stroke="#3F3D56" stroke-width="0.656905" stroke-miterlimit="10"/>
<path d="M183.244 108.816C174.08 104.607 164.669 103.952 155.011 106.851L155.814 95.3121C165.213 93.1747 175.034 93.8582 184.047 97.2768L183.244 108.816Z" stroke="#3F3D56" stroke-width="0.656905" stroke-miterlimit="10"/>
<path d="M174.975 99.9406C175.093 98.2498 172.599 96.6989 169.405 96.4767C166.212 96.2544 163.527 97.445 163.409 99.1358C163.292 100.827 165.785 102.377 168.979 102.6C172.173 102.822 174.857 101.631 174.975 99.9406Z" stroke="#3F3D56" stroke-width="0.656905" stroke-miterlimit="10"/>
<path d="M141.737 73.0026C141.737 73.0026 116.676 69.5741 98.7786 80.0624" stroke="#3F3D56" stroke-width="0.656905" stroke-miterlimit="10"/>
<path d="M99.3816 76.5381L100.033 76.744L99.015 79.949L102.286 80.7295L102.127 81.3934L98.1434 80.4417L99.3816 76.5381Z" fill="#3F3D56"/>
</g>
<defs>
<clipPath id="clip0">
<rect width="374.747" height="272" fill="white" transform="translate(0.253418)"/>
</clipPath>
</defs>
</svg>
