<svg width="352" height="272" viewBox="0 0 352 272" fill="none" xmlns="http://www.w3.org/2000/svg">
<g clip-path="url(#clip0)">
<path d="M16.1052 264.241C27.0609 272.133 41.2587 272.53 54.9823 271.56C56.8987 271.425 58.8014 271.266 60.6866 271.095C60.6979 271.092 60.7129 271.093 60.7245 271.09C60.8151 271.082 60.9058 271.073 60.9925 271.068C61.3816 271.031 61.7709 270.995 62.1564 270.958L62.0653 271.132L61.7795 271.671C61.8822 271.491 61.9848 271.314 62.0875 271.134C62.1178 271.079 62.1516 271.026 62.1816 270.971C65.7368 264.785 69.2629 258.371 70.1624 251.306C71.0921 243.974 68.4793 235.671 62.0257 232.067C61.1794 231.596 60.2831 231.22 59.3535 230.948C58.9675 230.83 58.5763 230.735 58.1807 230.651C55.7603 230.114 53.2405 230.23 50.8804 230.99C48.5202 231.749 46.4048 233.123 44.7518 234.971C43.0987 236.819 41.9677 239.073 41.4749 241.503C40.9821 243.933 41.1455 246.45 41.9481 248.796C36.4766 243.186 37.4973 234.084 39.3847 226.477C41.2757 218.871 43.5649 210.407 39.7188 203.575C37.5807 199.772 33.8209 197.412 29.6014 196.462C29.472 196.434 29.3427 196.406 29.213 196.382C24.1856 195.364 18.9592 196.28 14.5775 198.946C6.50952 204.031 2.36569 213.67 1.02079 223.113C-1.14611 238.308 3.64927 255.267 16.1052 264.241Z" fill="#F2F2F2"/>
<path d="M19.6426 239.882C19.9607 243.234 20.7658 246.522 22.0326 249.641C23.2001 252.401 24.7737 254.972 26.7013 257.267C30.6389 262.004 35.8455 265.565 41.5 267.938C45.8236 269.708 50.3537 270.925 54.9825 271.56C56.8988 271.425 58.8016 271.266 60.6867 271.095C60.6981 271.092 60.7131 271.093 60.7247 271.09C60.8153 271.082 60.906 271.073 60.9927 271.068C61.3818 271.031 61.7711 270.995 62.1565 270.958L62.0655 271.132L61.7797 271.671C61.8824 271.491 61.985 271.314 62.0877 271.134C62.1179 271.08 62.1518 271.026 62.1818 270.971C58.7116 267.514 56.1207 263.275 54.6261 258.61C53.1315 253.945 52.7768 248.99 53.5918 244.159C54.4446 239.363 56.4188 234.836 59.3536 230.948C58.9677 230.83 58.5765 230.735 58.1809 230.651C57.0655 232.176 56.0872 233.796 55.2572 235.493C52.2793 241.546 51.3293 248.396 52.5477 255.031C53.6805 261.034 56.5026 266.59 60.6827 271.046C60.3167 271.02 59.9471 270.99 59.5854 270.957C52.735 270.377 45.8985 268.904 39.6851 265.888C34.374 263.372 29.7631 259.588 26.2584 254.871C22.4953 249.681 20.8371 243.439 20.5523 237.094C20.2502 230.301 21.1316 223.389 22.6818 216.784C24.2646 210.012 26.6703 203.459 29.845 197.271C29.916 197.131 29.9303 196.969 29.885 196.818C29.8397 196.667 29.7382 196.54 29.6016 196.462C29.4877 196.385 29.3482 196.357 29.2132 196.382C29.1472 196.4 29.0859 196.432 29.0341 196.476C28.9822 196.521 28.941 196.576 28.9136 196.639C28.522 197.403 28.1376 198.168 27.7679 198.942C24.6885 205.384 22.4214 212.184 21.0187 219.185C19.6569 225.939 18.93 233.005 19.6426 239.882Z" fill="white"/>
<path d="M344.951 233.854H163.756C161.887 233.852 160.095 233.108 158.774 231.787C157.452 230.465 156.709 228.674 156.707 226.805V7.04878C156.709 5.17997 157.452 3.38831 158.774 2.06686C160.095 0.745416 161.887 0.0021038 163.756 0H344.951C346.82 0.0021038 348.611 0.745416 349.933 2.06686C351.254 3.38831 351.998 5.17997 352 7.04878V226.805C351.998 228.674 351.254 230.465 349.933 231.787C348.611 233.108 346.82 233.852 344.951 233.854ZM163.756 0.829268C162.107 0.831134 160.526 1.487 159.36 2.65298C158.194 3.81896 157.538 5.39984 157.536 7.04878V226.805C157.538 228.454 158.194 230.035 159.36 231.201C160.526 232.367 162.107 233.023 163.756 233.024H344.951C346.6 233.023 348.181 232.367 349.347 231.201C350.513 230.035 351.169 228.454 351.17 226.805V7.04878C351.169 5.39984 350.513 3.81896 349.347 2.65298C348.181 1.487 346.6 0.831134 344.951 0.829268H163.756Z" fill="#3F3D56"/>
<path d="M351.585 17.2451H157.122V18.0744H351.585V17.2451Z" fill="#3F3D56"/>
<path d="M166.658 12.4388C168.49 12.4388 169.975 10.9537 169.975 9.12176C169.975 7.28979 168.49 5.80469 166.658 5.80469C164.826 5.80469 163.341 7.28979 163.341 9.12176C163.341 10.9537 164.826 12.4388 166.658 12.4388Z" fill="#3F3D56"/>
<path d="M177.024 12.4388C178.856 12.4388 180.341 10.9537 180.341 9.12176C180.341 7.28979 178.856 5.80469 177.024 5.80469C175.192 5.80469 173.707 7.28979 173.707 9.12176C173.707 10.9537 175.192 12.4388 177.024 12.4388Z" fill="#3F3D56"/>
<path d="M187.39 12.4388C189.222 12.4388 190.707 10.9537 190.707 9.12176C190.707 7.28979 189.222 5.80469 187.39 5.80469C185.558 5.80469 184.073 7.28979 184.073 9.12176C184.073 10.9537 185.558 12.4388 187.39 12.4388Z" fill="#3F3D56"/>
<path d="M316.864 50.1711H187.498C186.068 50.1711 184.697 49.6032 183.686 48.5923C182.675 47.5815 182.107 46.2104 182.107 44.7809C182.107 43.3513 182.675 41.9803 183.686 40.9694C184.697 39.9585 186.068 39.3906 187.498 39.3906H316.864C318.293 39.3906 319.664 39.9585 320.675 40.9694C321.686 41.9803 322.254 43.3513 322.254 44.7809C322.254 46.2104 321.686 47.5815 320.675 48.5923C319.664 49.6032 318.293 50.1711 316.864 50.1711ZM187.498 40.2199C186.288 40.2199 185.128 40.7004 184.273 41.5558C183.417 42.4111 182.937 43.5712 182.937 44.7809C182.937 45.9905 183.417 47.1506 184.273 48.006C185.128 48.8613 186.288 49.3418 187.498 49.3418H316.864C318.073 49.3418 319.233 48.8613 320.089 48.006C320.944 47.1506 321.424 45.9905 321.424 44.7809C321.424 43.5712 320.944 42.4111 320.089 41.5558C319.233 40.7004 318.073 40.2199 316.864 40.2199H187.498Z" fill="#3F3D56"/>
<path d="M235.902 126.049H184.902C183.033 126.047 181.242 125.303 179.92 123.982C178.599 122.661 177.855 120.869 177.853 119V77.122C177.855 75.2532 178.599 73.4616 179.92 72.1401C181.242 70.8187 183.033 70.0753 184.902 70.0732H235.902C237.771 70.0753 239.563 70.8187 240.884 72.1401C242.206 73.4616 242.949 75.2532 242.951 77.122V119C242.949 120.869 242.206 122.661 240.884 123.982C239.563 125.303 237.771 126.047 235.902 126.049ZM184.902 70.9025C183.253 70.9044 181.672 71.5602 180.506 72.7262C179.34 73.8922 178.685 75.4731 178.683 77.122V119C178.685 120.649 179.34 122.23 180.506 123.396C181.672 124.562 183.253 125.218 184.902 125.22H235.902C237.551 125.218 239.132 124.562 240.298 123.396C241.464 122.23 242.12 120.649 242.122 119V77.122C242.12 75.4731 241.464 73.8922 240.298 72.7262C239.132 71.5602 237.551 70.9044 235.902 70.9025H184.902Z" fill="#3F3D56"/>
<path d="M323.805 72.1465H272.805C269.141 72.1465 266.17 75.1167 266.17 78.7806V120.659C266.17 124.323 269.141 127.293 272.805 127.293H323.805C327.468 127.293 330.439 124.323 330.439 120.659V78.7806C330.439 75.1167 327.468 72.1465 323.805 72.1465Z" fill="#F2F2F2"/>
<path d="M235.902 204H184.902C183.033 203.998 181.242 203.255 179.92 201.933C178.599 200.612 177.855 198.82 177.853 196.951V155.073C177.855 153.204 178.599 151.413 179.92 150.091C181.242 148.77 183.033 148.027 184.902 148.024H235.902C237.771 148.027 239.563 148.77 240.884 150.091C242.206 151.413 242.949 153.204 242.951 155.073V196.951C242.949 198.82 242.206 200.612 240.884 201.933C239.563 203.255 237.771 203.998 235.902 204ZM184.902 148.854C183.253 148.856 181.672 149.511 180.506 150.677C179.34 151.843 178.685 153.424 178.683 155.073V196.951C178.685 198.6 179.34 200.181 180.506 201.347C181.672 202.513 183.253 203.169 184.902 203.171H235.902C237.551 203.169 239.132 202.513 240.298 201.347C241.464 200.181 242.12 198.6 242.122 196.951V155.073C242.12 153.424 241.464 151.843 240.298 150.677C239.132 149.511 237.551 148.856 235.902 148.854H184.902Z" fill="#3F3D56"/>
<path d="M323.805 150.098H272.805C269.141 150.098 266.17 153.068 266.17 156.732V198.61C266.17 202.274 269.141 205.244 272.805 205.244H323.805C327.468 205.244 330.439 202.274 330.439 198.61V156.732C330.439 153.068 327.468 150.098 323.805 150.098Z" fill="#F2F2F2"/>
<path d="M197.711 115.92C197.702 115.92 197.693 115.92 197.684 115.92L191.883 115.705C191.702 115.699 191.529 115.629 191.396 115.506C191.263 115.383 191.18 115.216 191.16 115.036C190.761 111.474 189.118 93.3213 196.001 85.7765C196.975 84.6871 198.18 83.8283 199.527 83.2623C200.875 82.6963 202.331 82.4373 203.791 82.5042C203.85 82.508 203.91 82.4954 203.962 82.4679C204.015 82.4404 204.059 82.3991 204.09 82.3483L205.494 80.1415C205.571 80.0219 205.68 79.9263 205.808 79.8654C205.937 79.8045 206.08 79.7808 206.221 79.7969C207.347 79.933 213.086 80.5752 215.499 79.8765C215.641 79.8345 215.793 79.8354 215.935 79.8791C216.077 79.9227 216.202 80.0071 216.297 80.1219L218.141 82.3756C218.172 82.4164 218.213 82.449 218.26 82.4707C218.307 82.4924 218.358 82.5026 218.41 82.5003C219.348 82.4815 222.636 82.6631 225.515 85.8824C228.631 89.3683 231.848 97.2334 229.472 114.905C229.447 115.087 229.357 115.253 229.219 115.374C229.082 115.495 228.905 115.561 228.722 115.562H224.153C223.972 115.561 223.796 115.496 223.659 115.377C223.522 115.258 223.432 115.094 223.405 114.915L221.913 104.617C221.9 104.533 221.857 104.456 221.79 104.402C221.724 104.348 221.64 104.321 221.554 104.326C221.469 104.331 221.389 104.368 221.33 104.43C221.27 104.492 221.236 104.573 221.235 104.659L221.132 109.494C221.128 109.637 221.085 109.777 221.005 109.896C220.926 110.016 220.814 110.11 220.683 110.168C219.054 110.885 210.448 114.243 200.937 110.037C200.808 109.979 200.698 109.886 200.619 109.77C200.54 109.653 200.494 109.517 200.488 109.376L200.301 104.983C200.297 104.897 200.261 104.816 200.201 104.755C200.14 104.695 200.058 104.66 199.972 104.657C199.887 104.654 199.803 104.683 199.738 104.739C199.673 104.795 199.631 104.874 199.622 104.959L198.462 115.249C198.441 115.434 198.352 115.604 198.214 115.727C198.076 115.851 197.897 115.92 197.711 115.92Z" fill="#FF0099"/>
<path d="M221.708 191.784H221.703L198.973 191.64C198.807 191.639 198.648 191.577 198.525 191.467C198.402 191.357 198.323 191.205 198.304 191.041L196.017 171.606C196.003 171.481 195.944 171.364 195.852 171.279C195.759 171.193 195.638 171.144 195.512 171.141C193.708 171.082 189.414 170.671 188.525 168.129C187.732 165.866 189.899 162.528 194.966 158.207C195.052 158.133 195.156 158.082 195.266 158.058C195.377 158.035 195.493 158.039 195.601 158.072C195.71 158.104 195.809 158.163 195.889 158.244C195.969 158.324 196.027 158.423 196.059 158.532L198.689 167.607C198.721 167.715 198.787 167.811 198.878 167.88C198.968 167.948 199.079 167.986 199.192 167.987L220.744 168.132C220.857 168.133 220.967 168.098 221.059 168.031C221.15 167.965 221.217 167.87 221.251 167.762L224.177 158.451C224.21 158.347 224.267 158.252 224.344 158.175C224.421 158.098 224.515 158.04 224.619 158.007C224.723 157.974 224.833 157.967 224.94 157.986C225.047 158.004 225.149 158.049 225.235 158.115C227.232 159.64 233.665 164.876 232.607 168.225C232.052 169.979 229.551 170.957 225.172 171.131C225.046 171.135 224.926 171.185 224.834 171.27C224.742 171.356 224.683 171.471 224.669 171.596L222.381 191.184C222.362 191.35 222.283 191.502 222.159 191.612C222.034 191.723 221.874 191.784 221.708 191.784Z" fill="#FF0099"/>
<path d="M321.317 109.941C314.174 111.316 307.438 114.3 301.62 118.665C301.325 117.882 300.771 117.223 300.049 116.8C299.556 116.494 299.018 116.268 298.455 116.13C297.943 115.999 297.45 116.311 296.998 116.759C296.478 117.335 296.042 117.981 295.702 118.678C287.897 113.32 276.055 109.901 276.055 109.901V108.83C276.065 108.577 276.091 108.325 276.132 108.076C276.173 107.788 276.223 107.534 276.287 107.222C277.291 102.112 281.263 90.435 281.263 90.435H285.753L294.46 92.2433L304.255 91.6439L314.12 89.5911L315.4 89.3232C317.533 90.9976 319.954 102.718 320.905 107.708C321.026 108.341 321.119 108.863 321.19 109.248C321.273 109.684 321.317 109.941 321.317 109.941Z" fill="white"/>
<path d="M294.522 161.384C294.522 161.384 292.436 161.905 289.201 170.667C285.966 179.429 284.82 190.749 284.82 190.749C284.82 190.749 283.001 193.829 290.766 194.036C290.766 194.036 290.141 196.07 294.522 195.758C298.903 195.445 298.272 195.448 298.272 195.448C298.272 195.448 301.089 193.675 302.341 193.987C303.593 194.299 304.375 194.405 305.73 195.551C307.085 196.697 311.418 196.231 311.469 195.345C311.504 194.91 311.504 194.473 311.469 194.039C311.469 194.039 318.094 194.457 316.842 189.658C315.589 184.858 314.547 176.982 314.547 176.982C314.547 176.982 311.157 161.596 307.295 161.387C303.432 161.178 294.522 161.384 294.522 161.384Z" fill="white"/>
<path d="M80.3926 146.613C87.2625 146.613 92.8317 141.044 92.8317 134.174C92.8317 127.304 87.2625 121.735 80.3926 121.735C73.5228 121.735 67.9536 127.304 67.9536 134.174C67.9536 141.044 73.5228 146.613 80.3926 146.613Z" fill="#2F2E41"/>
<path d="M81.4377 146.636C87.0621 146.636 91.6216 142.077 91.6216 136.452C91.6216 130.828 87.0621 126.269 81.4377 126.269C75.8134 126.269 71.2539 130.828 71.2539 136.452C71.2539 142.077 75.8134 146.636 81.4377 146.636Z" fill="#FFB8B8"/>
<path d="M120.222 167.428C120.06 167.591 119.911 167.766 119.777 167.952L99.2269 167.226L96.8765 162.818L89.7604 165.496L93.163 173.704C93.4379 174.367 93.9205 174.923 94.5383 175.289C95.1561 175.654 95.8758 175.809 96.5893 175.731L119.844 173.178C120.384 173.877 121.125 174.396 121.967 174.664C122.809 174.932 123.713 174.938 124.558 174.68C125.404 174.422 126.15 173.913 126.699 173.22C127.248 172.528 127.574 171.684 127.631 170.802C127.689 169.921 127.478 169.042 127.024 168.283C126.57 167.525 125.897 166.922 125.092 166.556C124.288 166.19 123.391 166.077 122.521 166.233C121.651 166.389 120.849 166.806 120.222 167.428H120.222Z" fill="#FFB8B8"/>
<path d="M87.0231 169.459C86.7613 169.342 86.5278 169.169 86.3387 168.953C86.1496 168.738 86.0093 168.483 85.9274 168.208L83.0651 158.602C82.4435 157.271 82.3749 155.749 82.8742 154.368C83.3735 152.987 84.4001 151.86 85.7287 151.235C87.0574 150.61 88.5798 150.537 89.9621 151.032C91.3444 151.528 92.4738 152.551 93.1027 153.878L98.6473 162.268C98.8055 162.508 98.9102 162.778 98.9544 163.062C98.9985 163.346 98.9811 163.635 98.9031 163.912C98.8252 164.188 98.6886 164.444 98.5028 164.663C98.3169 164.881 98.0861 165.057 97.826 165.179L88.6864 169.447C88.4264 169.569 88.1431 169.633 87.8561 169.635C87.5691 169.637 87.2849 169.577 87.0231 169.459Z" fill="#CCCCCC"/>
<path d="M107.264 266.994L111.728 264.563L104.478 246.186L97.889 249.773L107.264 266.994Z" fill="#FFB8B8"/>
<path d="M105.331 266.156L114.124 261.369L114.124 261.369C114.86 260.969 115.668 260.717 116.501 260.628C117.334 260.54 118.176 260.616 118.98 260.854C119.783 261.091 120.532 261.484 121.184 262.01C121.836 262.537 122.377 263.187 122.778 263.922L122.877 264.105L108.481 271.941L105.331 266.156Z" fill="#2F2E41"/>
<path d="M58.1347 267.013H63.2177L65.6362 247.406L58.1334 247.407L58.1347 267.013Z" fill="#FFB8B8"/>
<path d="M56.8381 265.355L66.849 265.354H66.8494C67.6872 265.354 68.5168 265.519 69.2908 265.84C70.0648 266.161 70.7682 266.631 71.3606 267.223C71.953 267.815 72.4229 268.519 72.7435 269.293C73.0641 270.067 73.2292 270.896 73.2291 271.734V271.941L56.8384 271.942L56.8381 265.355Z" fill="#2F2E41"/>
<path d="M89.7222 179.991L91.3807 199.893L109.881 255.394C109.954 255.613 109.98 255.844 109.959 256.073C109.938 256.302 109.869 256.524 109.757 256.725C109.645 256.926 109.493 257.102 109.309 257.241C109.126 257.38 108.916 257.479 108.692 257.532L103.022 258.882C102.659 258.969 102.277 258.93 101.939 258.773C101.6 258.616 101.325 258.349 101.157 258.016L77.5041 211.099C77.427 210.946 77.3045 210.82 77.1533 210.74C77.0022 210.659 76.8298 210.628 76.6599 210.649C76.49 210.671 76.3309 210.744 76.2044 210.86C76.078 210.975 75.9904 211.127 75.9536 211.294L65.5448 258.712C65.4637 259.082 65.2589 259.412 64.9643 259.649C64.6696 259.886 64.3029 260.015 63.9248 260.015H58.6499C58.4302 260.016 58.2126 259.972 58.0099 259.887C57.8072 259.803 57.6233 259.678 57.4691 259.522C57.3149 259.366 57.1933 259.18 57.1115 258.976C57.0297 258.772 56.9894 258.554 56.9927 258.334C57.4761 225.455 55.8815 187.99 68.5758 182.064L70.649 176.674L89.7222 179.991Z" fill="#2F2E41"/>
<path d="M70.0521 178.085L67.9144 165.158C67.5606 163.038 67.7462 160.863 68.454 158.834C69.1619 156.804 70.3693 154.986 71.9648 153.546C73.5245 152.119 75.4181 151.109 77.471 150.607C79.524 150.105 81.6703 150.128 83.7119 150.674C83.8331 150.707 83.9544 150.74 84.0759 150.774C86.588 151.494 88.8188 152.967 90.467 154.994C92.1152 157.022 93.1013 159.507 93.2922 162.113C93.7001 167.727 93.3351 175.872 89.2792 182.791L89.2005 182.925L70.0521 178.085Z" fill="#CCCCCC"/>
<path d="M91.5686 131.04C89.2414 132.644 86.4793 133.498 83.6529 133.487C84.6611 134.186 85.8089 134.658 87.0171 134.871C83.2593 135.677 79.3755 135.699 75.6089 134.935C74.7716 134.801 73.9638 134.523 73.2207 134.115C72.8504 133.908 72.5278 133.625 72.2738 133.286C72.0199 132.946 71.8402 132.557 71.7466 132.143C71.4963 130.713 72.6105 129.414 73.7683 128.539C75.5411 127.219 77.5851 126.309 79.7525 125.876C81.9199 125.443 84.1565 125.497 86.3004 126.034C87.7003 126.396 89.1027 127.008 90.012 128.132C90.9213 129.256 91.1907 130.989 90.3244 132.147L91.5686 131.04Z" fill="#2F2E41"/>
<path d="M80.2291 121.674C81.4097 116.907 77.1786 111.611 72.2691 111.71C67.2879 111.811 63.6223 116.312 61.1026 120.61C58.5829 124.908 56.0787 129.781 51.4529 131.631C49.9221 132.243 48.2633 132.466 46.6252 132.28C44.9871 132.093 43.4209 131.503 42.067 130.562C40.7131 129.621 39.6139 128.359 38.8678 126.889C38.1218 125.419 37.7522 123.786 37.7923 122.138C37.1712 127.36 38.0317 133.01 41.3991 137.048C44.7666 141.087 51.0325 142.907 55.5362 140.193C58.1084 138.643 59.7525 135.948 61.108 133.268C62.4634 130.588 63.6696 127.762 65.7234 125.571C67.7772 123.38 70.9529 121.926 73.8111 122.848C74.9456 123.214 75.9635 123.927 77.1357 124.144C78.3079 124.361 79.7837 123.804 79.9438 122.623L80.2291 121.674Z" fill="#2F2E41"/>
<path d="M55.6839 208.102C55.2612 207.606 54.9523 207.024 54.7789 206.397C54.6055 205.769 54.5718 205.111 54.6802 204.469C54.7886 203.827 55.0365 203.216 55.4064 202.68C55.7763 202.144 56.2592 201.696 56.8211 201.367L65.655 161.771L74.6163 165.449L63.115 203.214C63.6053 204.194 63.7189 205.321 63.4342 206.38C63.1495 207.438 62.4864 208.356 61.5704 208.958C60.6544 209.561 59.5493 209.806 58.4644 209.648C57.3795 209.491 56.3902 208.94 55.6839 208.102H55.6839Z" fill="#FFB8B8"/>
<path d="M62.1549 167.45C62.0138 167.2 61.9283 166.923 61.9043 166.637C61.8802 166.351 61.9181 166.063 62.0154 165.793L65.4124 156.362C65.7015 154.922 66.5498 153.656 67.7712 152.841C68.9926 152.025 70.4874 151.728 71.9279 152.013C73.3684 152.298 74.6371 153.143 75.4556 154.362C76.2742 155.581 76.5758 157.075 76.2945 158.517L75.7784 168.56C75.7637 168.847 75.6874 169.127 75.5546 169.381C75.4219 169.636 75.2358 169.858 75.0092 170.035C74.7825 170.211 74.5206 170.336 74.2412 170.401C73.9618 170.467 73.6716 170.472 73.3902 170.415L63.5009 168.427C63.2195 168.371 62.9535 168.254 62.7212 168.085C62.4889 167.917 62.2958 167.7 62.1549 167.45Z" fill="#CCCCCC"/>
<path d="M134.533 163.009L134.386 162.989L134.94 158.958C135.025 158.339 134.861 157.711 134.484 157.214C134.106 156.716 133.546 156.389 132.928 156.303L124.386 155.129C123.768 155.044 123.14 155.209 122.643 155.586C122.145 155.963 121.817 156.523 121.732 157.142L118.692 179.259C118.607 179.878 118.771 180.505 119.149 181.003C119.526 181.5 120.086 181.828 120.705 181.913L129.246 183.087C129.865 183.172 130.492 183.008 130.99 182.63C131.487 182.253 131.815 181.693 131.9 181.074L133.992 165.859L134.139 165.879L134.533 163.009Z" fill="#3F3D56"/>
<path d="M132.659 157.487L131.596 157.34C131.628 157.467 131.629 157.6 131.598 157.727C131.567 157.854 131.506 157.971 131.419 158.069C131.332 158.166 131.222 158.241 131.099 158.286C130.977 158.331 130.845 158.346 130.715 158.328L126.048 157.686C125.918 157.668 125.795 157.619 125.689 157.542C125.583 157.466 125.498 157.364 125.441 157.247C125.383 157.13 125.355 157 125.36 156.869C125.364 156.739 125.401 156.611 125.466 156.498L124.473 156.361C124.255 156.331 124.033 156.345 123.82 156.4C123.606 156.456 123.406 156.553 123.231 156.687C123.055 156.82 122.908 156.986 122.796 157.176C122.685 157.366 122.612 157.577 122.582 157.795L119.687 178.86C119.657 179.078 119.67 179.3 119.726 179.514C119.782 179.727 119.879 179.927 120.012 180.102C120.145 180.278 120.312 180.425 120.502 180.537C120.692 180.648 120.902 180.721 121.12 180.751L129.307 181.876C129.747 181.937 130.194 181.82 130.549 181.551C130.903 181.282 131.137 180.883 131.197 180.442L134.093 159.377C134.153 158.936 134.036 158.49 133.768 158.135C133.499 157.78 133.1 157.547 132.659 157.487L132.659 157.487Z" fill="white"/>
<path d="M126.853 174.975C129.372 174.975 131.414 172.933 131.414 170.414C131.414 167.896 129.372 165.854 126.853 165.854C124.335 165.854 122.292 167.896 122.292 170.414C122.292 172.933 124.335 174.975 126.853 174.975Z" fill="#00D897"/>
<path d="M126.401 172.154C126.299 172.155 126.199 172.121 126.117 172.06L126.112 172.056L125.04 171.235C124.99 171.197 124.948 171.15 124.917 171.096C124.885 171.042 124.865 170.982 124.856 170.92C124.848 170.858 124.852 170.794 124.868 170.734C124.884 170.673 124.912 170.617 124.95 170.567C124.988 170.517 125.036 170.475 125.09 170.444C125.145 170.413 125.204 170.392 125.267 170.384C125.329 170.376 125.392 170.38 125.452 170.397C125.513 170.413 125.57 170.441 125.619 170.479L126.313 171.012L127.954 168.872C127.992 168.822 128.04 168.781 128.094 168.749C128.148 168.718 128.208 168.698 128.27 168.69C128.332 168.681 128.395 168.686 128.455 168.702C128.515 168.718 128.572 168.746 128.622 168.784L128.612 168.798L128.622 168.784C128.722 168.861 128.788 168.975 128.804 169.1C128.821 169.225 128.787 169.351 128.71 169.452L126.78 171.969C126.736 172.027 126.678 172.073 126.613 172.106C126.547 172.138 126.475 172.155 126.401 172.154Z" fill="white"/>
<path d="M168.89 272H10.9141C10.8042 272 10.6987 271.956 10.621 271.879C10.5432 271.801 10.4995 271.695 10.4995 271.586C10.4995 271.476 10.5432 271.37 10.621 271.292C10.6987 271.215 10.8042 271.171 10.9141 271.171H168.89C169 271.171 169.105 271.215 169.183 271.292C169.261 271.37 169.304 271.476 169.304 271.586C169.304 271.695 169.261 271.801 169.183 271.879C169.105 271.956 169 272 168.89 272Z" fill="#3F3D56"/>
</g>
<defs>
<clipPath id="clip0">
<rect width="351.482" height="272" fill="white" transform="translate(0.517578)"/>
</clipPath>
</defs>
</svg>
