<svg width="356" height="272" viewBox="0 0 356 272" fill="none" xmlns="http://www.w3.org/2000/svg">
<g clip-path="url(#clip0)">
<path opacity="0.1" d="M31.8042 125.716C26.8915 127.321 22.3063 131.205 21.0683 136.593C19.6633 142.783 22.8991 149.038 23.3609 155.386C24.8708 176.219 -2.55523 190.918 1.35529 211.39C2.91097 219.516 9.19268 225.506 15.386 230.435C25.2998 238.332 36.2977 245.304 48.4648 247.276C66.9497 250.266 86.2665 241.469 104.237 247.03C118.73 251.514 129.819 264.66 144.213 269.511C155.172 273.205 166.972 271.748 178.367 270.254C184.494 269.452 190.933 268.522 195.889 264.543C205.115 257.134 205.671 242.507 211.842 232.024C221.363 215.841 242.238 212.681 259.744 215.825C277.249 218.969 294.238 226.721 311.972 226.066C315.762 225.932 319.649 225.372 322.951 223.364C326.969 220.921 329.688 216.621 332.088 212.363C347.049 185.834 355.384 154.976 355.977 123.911C356.079 118.544 355.905 112.943 353.57 108.191C350.622 102.194 344.727 98.6143 338.832 96.1973C324.723 90.4265 309.136 89.4931 295.305 82.9428C281.966 76.6316 271.158 65.5584 259.544 56.0867C236.51 37.2711 209.434 24.2491 181.098 18.3375C174.427 16.9456 167.503 15.9499 160.874 17.558C153.236 19.4118 146.653 24.557 140.735 30.092C124.985 44.8301 112.366 63.0005 97.8572 79.1469C87.9168 90.2017 77.0123 100.35 65.2728 109.471C59.8918 113.654 54.193 118.619 48.2094 121.711C42.7366 124.537 37.5914 123.826 31.8042 125.716Z" fill="#6C63FF"/>
<path d="M333.254 136.327C326.049 134.821 312.408 131.994 296.969 128.863C274.112 124.229 268.148 141.771 268.148 141.771C268.148 150.705 238.344 187.767 238.344 187.767L229.455 167.854C230.821 168.065 232.217 167.971 233.543 167.579C238.632 166.059 241.148 160.318 241.963 155.074C243.18 147.177 242.068 139.096 238.763 131.821C237.247 128.5 235.282 125.375 234.063 121.936C228.925 107.506 237.827 90.803 232.442 76.4284C230.218 70.4971 225.784 65.686 222.718 60.1445C215.841 47.6826 216.135 32.0929 208.635 19.988C201.6 8.63967 187.737 1.91254 174.456 3.41256C166.625 4.29684 161.028 7.09381 153.731 3.74007C147.57 0.916902 140.175 -2.24033 133.831 2.20731C128.421 5.99991 127.5 13.4705 124.546 19.3756C119.358 29.7479 107.05 36.5176 105.603 48.0232C105.246 50.8594 105.603 53.8005 104.774 56.5385C102.41 64.2777 92.1126 66.5637 87.8942 73.471C83.7642 80.2309 87.9368 90.4526 95.6202 92.4013C98.8954 93.2332 102.419 92.7288 105.691 93.6098C108.76 94.4286 111.737 97.2976 111.207 100.294L104.401 101.532L84.8188 103.707L81.7893 103.897C81.7893 103.897 81.7893 103.949 81.7893 104.044L81.6256 104.064L81.7861 104.195C81.7861 104.428 81.7861 104.791 81.7861 105.269C76.274 107.428 67.3427 113.189 63.9693 128.3C63.1965 131.749 61.6349 134.972 59.4071 137.716C54.3863 143.906 46.0543 155.995 46.5194 167.598C47.1744 184.144 47.1744 190.763 69.0458 186.129C74.5709 184.96 80.5808 182.562 86.4793 179.634C86.8232 186.532 87.7173 193.295 89.5842 198.372C95.5482 214.587 82.9586 271.836 82.9586 271.836H204.541C204.541 271.836 194.271 238.083 184.334 220.875C177.296 208.685 179.896 201.313 182.012 198.047C183.846 195.272 185.217 192.217 186.07 189.001C186.43 187.59 186.78 185.988 187.082 184.213C189.319 186.044 191.706 187.688 194.408 188.671C196.91 189.578 199.756 189.827 202.288 189.126C207.469 195.46 213.257 202.407 219.45 209.625C243.303 237.421 249.928 220.213 249.928 220.213C249.928 220.213 274.112 174.217 277.439 160.318C280.767 146.418 288.041 147.08 288.041 147.08C307.98 152.12 325.653 144.803 333.863 140.402C334.263 140.19 334.586 139.859 334.79 139.456C334.993 139.053 335.067 138.596 335 138.149C334.933 137.702 334.729 137.287 334.417 136.961C334.104 136.635 333.698 136.413 333.254 136.327ZM87.2523 144.643C88.9158 142.747 90.3453 140.658 91.5099 138.42H91.5722C90.9684 140.734 90.1899 142.998 89.2435 145.193C87.3865 145.55 86.2665 145.737 86.2665 145.737L87.2523 144.643Z" fill="url(#paint0_linear)"/>
<path d="M132.963 5.15157C127.615 8.90488 126.705 16.287 123.793 22.143C118.664 32.4073 106.497 39.1115 105.066 50.4958C104.712 53.3026 105.066 56.2142 104.247 58.9195C101.912 66.58 91.7294 68.8431 87.5438 75.6784C83.4597 82.3662 87.5863 92.4831 95.1814 94.4121C98.427 95.2375 101.902 94.7396 105.138 95.6076C108.374 96.4755 111.508 99.6458 110.437 102.813C109.641 105.171 106.834 106.514 106.323 108.95C105.878 111.047 107.306 113.044 108.688 114.675C110.444 116.739 112.317 118.769 114.665 120.122C121.124 123.842 129.181 121.609 136.628 121.363C145.638 121.096 154.471 123.904 161.673 129.325C163.733 130.887 165.672 132.692 166.949 134.942C171.112 142.272 167.175 151.472 168.06 159.853C169.062 169.377 176.175 177.021 183.358 183.352C186.227 185.88 189.253 188.372 192.856 189.679C196.458 190.986 200.765 190.914 203.795 188.582C206.978 186.132 208.085 181.793 208.105 177.774C208.124 173.756 207.279 169.757 207.482 165.745C207.581 163.78 208.298 161.444 210.214 161.058C211.174 160.865 212.146 161.254 213.021 161.693C219.132 164.765 224.995 170.782 231.545 168.83C236.579 167.326 239.078 161.644 239.87 156.453C241.072 148.64 239.972 140.647 236.707 133.448C235.206 130.173 233.264 127.072 232.059 123.666C226.996 109.357 235.789 92.8204 230.471 78.6031C228.273 72.734 223.888 67.972 220.858 62.4861C214.046 50.1519 214.35 34.7228 206.932 22.7423C199.979 11.5086 186.269 4.85354 173.143 6.33717C165.4 7.21163 159.869 9.9824 152.653 6.66469C146.562 3.87755 139.252 0.736692 132.963 5.15157Z" fill="#40243E"/>
<path d="M184.874 108.898C184.874 108.898 206.163 102.348 214.678 140.34L236.294 188.812C236.294 188.812 265.77 152.13 265.77 143.287C265.77 143.287 271.665 125.929 294.264 130.514C309.529 133.613 323 136.41 330.136 137.9C330.57 137.99 330.966 138.212 331.27 138.534C331.574 138.857 331.771 139.265 331.835 139.704C331.899 140.143 331.827 140.59 331.628 140.986C331.429 141.383 331.113 141.708 330.723 141.918C322.607 146.274 305.134 153.516 285.421 148.528C285.421 148.528 278.216 147.873 274.94 161.628C271.665 175.384 247.757 220.908 247.757 220.908C247.757 220.908 241.207 237.939 217.626 210.428C194.045 182.916 176.359 159.336 176.359 159.336L184.874 108.898Z" fill="#FFBCC8"/>
<path d="M184.874 113.483L182.051 122.781L179.261 131.978L173.739 150.165L147.538 155.077L138.999 149.631L128.542 142.959L119.525 136.737L106.271 127.566L95.463 104.968C95.463 104.968 98.4434 104.441 107.735 102.751L120.682 100.383C129.623 98.7451 133.003 92.0901 134.034 85.3171C135.269 77.2078 133.127 68.9414 133.127 68.9414H166.206C166.206 68.9414 169.907 74.5091 169.327 84.1249C169.145 86.9704 168.648 89.7868 167.843 92.5224C164.935 102.59 171.502 105.95 175.956 107.041C177.16 107.347 178.393 107.53 179.634 107.588L184.874 113.483Z" fill="#FFBCC8"/>
<path opacity="0.1" d="M169.318 84.1252C164.248 87.8756 158.16 89.9983 151.857 90.2124C145.555 90.4264 139.337 88.7218 134.025 85.3239C135.259 77.2147 133.117 68.9482 133.117 68.9482H166.196C166.196 68.9482 169.907 74.493 169.318 84.1252Z" fill="black"/>
<path d="M150.813 89.2471C167.996 89.2471 181.927 75.317 181.927 58.1333C181.927 40.9496 167.996 27.0195 150.813 27.0195C133.629 27.0195 119.699 40.9496 119.699 58.1333C119.699 75.317 133.629 89.2471 150.813 89.2471Z" fill="#FFBCC8"/>
<path opacity="0.1" d="M184.874 113.484L182.051 122.782L179.261 131.978L173.739 150.165L147.538 155.078L138.999 149.631L128.542 142.96L119.525 136.737L106.271 127.567L95.463 104.968C95.463 104.968 98.4434 104.441 107.735 102.751C114.285 120.977 122.571 127.763 130.048 129.964C134.519 131.274 138.698 130.947 142.029 130.455C146.31 129.77 150.688 129.993 154.877 131.11C164.932 133.907 170.225 128.552 173.005 121.757C175.062 116.729 175.743 110.909 175.953 107.018C177.157 107.324 178.389 107.507 179.631 107.565L184.874 113.484Z" fill="black"/>
<path d="M82.6896 272.001C82.6896 272.001 95.1352 215.341 89.2399 199.293C87.5532 194.707 86.6689 188.707 86.2726 182.498C85.2901 167.016 87.2748 150.165 87.2748 150.165C87.5565 149.619 87.8218 149.075 88.0772 148.528C88.7323 147.131 89.3087 145.764 89.8065 144.427C96.8251 125.543 88.0936 112.97 83.6656 108.162C82.9555 107.373 82.1893 106.636 81.373 105.958L106.428 103.174C113.014 122.075 121.461 129.047 129.059 131.281C133.53 132.591 137.709 132.264 141.039 131.772C145.321 131.087 149.698 131.31 153.888 132.427C163.942 135.224 169.235 129.869 172.016 123.074C175.468 114.637 175.042 103.983 175.042 103.983L189.452 108.24C189.452 108.24 188.182 116.134 187.032 126.506C186.76 128.939 186.495 131.507 186.256 134.144C185.273 145.141 184.69 157.302 185.85 165.555C187.028 173.711 186.608 182.018 184.615 190.014C183.774 193.197 182.42 196.221 180.606 198.968C178.514 202.198 175.943 209.498 182.899 221.567C192.724 238.597 202.877 272.004 202.877 272.004L82.6896 272.001Z" fill="#FF0099"/>
<path d="M189.295 108.407C189.295 108.407 201.194 127.075 185.581 143.124C169.969 159.172 176.195 136.573 176.195 136.573L180.125 110.372L189.295 108.407Z" fill="#FF0099"/>
<path opacity="0.1" d="M83.6656 108.162C84.5537 107.881 85.4642 107.677 86.3873 107.553C90.645 109.583 93.0031 115.22 94.2836 121.105C95.1384 125.097 95.1825 129.22 94.4134 133.229C93.6443 137.238 92.0777 141.052 89.8065 144.444C96.8251 125.543 88.0936 112.97 83.6656 108.162Z" fill="black"/>
<path opacity="0.1" d="M186.263 134.146C179.27 134.608 170.136 133.789 170.136 133.789C171.367 139.422 168.826 143.824 166.206 146.693C165.204 147.803 163.939 148.643 162.528 149.137C161.117 149.631 159.605 149.762 158.129 149.52C143.018 146.9 120.039 160.655 120.039 160.655C120.039 160.655 103.605 173.929 86.2728 182.507C85.2903 167.025 87.275 150.175 87.275 150.175C87.5567 149.628 87.822 149.084 88.0774 148.537C95.0797 147.227 120.521 142.052 125.594 134.454C126.347 133.324 127.559 132.266 129.066 131.284C133.399 128.48 140.332 126.283 146.925 124.678C155.131 122.665 163.628 122.126 172.022 123.086C175.626 123.499 179.192 124.194 182.686 125.166C184.213 125.588 185.686 126.043 187.039 126.518C190.746 127.828 193.556 129.292 194.044 130.851C194.703 132.947 190.966 133.838 186.263 134.146Z" fill="black"/>
<path opacity="0.1" d="M179.261 131.978C174.22 131.893 169.809 131.496 169.809 131.496C171.04 137.13 168.499 141.531 165.879 144.401C164.877 145.51 163.612 146.35 162.201 146.844C160.79 147.338 159.277 147.47 157.802 147.227C152.107 146.244 145.291 147.584 139.013 149.631L128.542 142.959L119.526 136.737C122.146 135.332 124.173 133.789 125.267 132.152C128.175 127.789 137.712 124.543 146.598 122.375C158.259 119.5 170.459 119.64 182.051 122.781L182.359 122.863C188.055 124.452 193.052 126.42 193.717 128.549C194.674 131.611 186.348 132.102 179.261 131.978Z" fill="black"/>
<path d="M86.0604 105.908C86.0604 105.908 68.9282 107.651 63.9336 129.859C63.1614 133.312 61.6036 136.539 59.3812 139.292C54.416 145.426 46.2053 157.37 46.6638 168.837C47.3188 185.212 47.3188 191.763 68.9347 187.177C90.5506 182.592 119.699 159.011 119.699 159.011C119.699 159.011 142.678 145.279 157.789 147.876C159.264 148.118 160.777 147.986 162.188 147.492C163.599 146.999 164.863 146.159 165.866 145.049C168.486 142.18 171.044 137.779 169.796 132.145C169.796 132.145 195.342 134.438 193.704 129.198C193.049 127.069 188.042 125.101 182.346 123.515C170.664 120.295 158.351 120.126 146.585 123.024C137.683 125.195 128.162 128.441 125.254 132.8C119.359 141.643 85.9523 147.211 85.9523 147.211L86.9349 146.107C90.1075 142.524 92.3955 138.247 93.6151 133.619C94.8346 128.991 94.9516 124.142 93.9568 119.461C92.6795 113.575 90.3312 107.939 86.0604 105.908Z" fill="#FFBCC8"/>
<path d="M81.544 105.787C81.544 105.787 80.5615 145.416 95.2996 139.521C110.038 133.626 98.5747 105.787 98.5747 105.787L92.0244 105.132L81.544 105.787Z" fill="#FF0099"/>
<path opacity="0.1" d="M125.65 58.6673C135.367 57.5886 144.949 55.529 154.251 52.5199C156.642 51.747 159.239 50.7186 160.356 48.4718C160.644 47.8921 160.861 47.2044 161.427 46.8867C161.909 46.6148 162.505 46.7 163.045 46.8244C166.238 47.581 168.98 49.5821 172.022 50.8103C175.065 52.0385 178.939 52.3267 181.278 50.021C184.039 47.2961 183.125 42.6126 181.307 39.1901C174.557 26.4564 158.745 20.643 144.361 21.6976C142.34 21.845 140.286 22.1168 138.465 23.0077C134.614 24.8581 132.505 28.9749 130.418 32.7053C126.36 39.9401 104.905 60.9632 125.65 58.6673Z" fill="black"/>
<path d="M125.65 57.6849C135.367 56.6062 144.949 54.5466 154.251 51.5375C156.642 50.7645 159.239 49.7361 160.356 47.4894C160.644 46.9097 160.861 46.2219 161.427 45.9042C161.909 45.6324 162.505 45.7176 163.045 45.842C166.238 46.5986 168.98 48.5997 172.022 49.8279C175.065 51.056 178.939 51.3442 181.278 49.0385C184.039 46.3136 183.125 41.6302 181.307 38.2077C174.557 25.4739 158.745 19.6606 144.361 20.7152C142.34 20.8626 140.286 21.1344 138.465 22.0252C134.614 23.8757 132.505 27.9925 130.418 31.7229C126.36 38.9577 104.905 59.9808 125.65 57.6849Z" fill="#40243E"/>
<path d="M336.755 92.3584H270.27C269.467 92.3584 268.696 92.6776 268.128 93.2457C267.56 93.8139 267.24 94.5844 267.24 95.3879V134.362C267.24 135.165 267.56 135.936 268.128 136.504C268.696 137.072 269.467 137.392 270.27 137.392H336.755C337.559 137.392 338.329 137.072 338.897 136.504C339.466 135.936 339.785 135.165 339.785 134.362V95.3879C339.785 94.5844 339.466 93.8139 338.897 93.2457C338.329 92.6776 337.559 92.3584 336.755 92.3584Z" fill="url(#paint1_linear)"/>
<path d="M335.033 92.8896H271.983C269.829 92.8896 268.083 94.636 268.083 96.7903V132.964C268.083 135.119 269.829 136.865 271.983 136.865H335.033C337.187 136.865 338.934 135.119 338.934 132.964V96.7903C338.934 94.636 337.187 92.8896 335.033 92.8896Z" fill="#0099FF"/>
<path d="M338.934 100.586H268.083V108.649H338.934V100.586Z" fill="#6C63FF"/>
<path opacity="0.3" d="M338.934 100.586H268.083V108.649H338.934V100.586Z" fill="#0070BA"/>
<path d="M332.212 114.633H274.799V118.543H332.212V114.633Z" fill="#D6D6E3"/>
<path d="M279.565 133.934C282.669 133.934 285.185 131.417 285.185 128.313C285.185 125.21 282.669 122.693 279.565 122.693C276.461 122.693 273.945 125.21 273.945 128.313C273.945 131.417 276.461 133.934 279.565 133.934Z" fill="#6C63FF"/>
<path opacity="0.3" d="M279.565 133.934C282.669 133.934 285.185 131.417 285.185 128.313C285.185 125.21 282.669 122.693 279.565 122.693C276.461 122.693 273.945 125.21 273.945 128.313C273.945 131.417 276.461 133.934 279.565 133.934Z" fill="#0070BA"/>
<path opacity="0.05" d="M83.8363 147.381C83.8363 147.381 77.6135 150.685 76.5818 154.724C75.5502 158.762 74.3384 159.499 74.3384 159.499" fill="black"/>
<path opacity="0.05" d="M236.458 188.647C236.458 188.647 233.51 198.8 236.458 200.11V188.647Z" fill="black"/>
<path opacity="0.05" d="M89.4041 200.111C89.4041 200.111 114.95 205.679 133.946 194.216H142.134C142.134 194.216 166.697 206.661 178.488 203.059" fill="black"/>
<path d="M270.748 180.417L265.795 191.767L287.911 201.42L292.865 190.07L270.748 180.417Z" fill="#8ED16F"/>
<path d="M283.918 193.096C284.48 191.81 282.85 189.857 280.279 188.735C277.708 187.613 275.168 187.746 274.607 189.032C274.045 190.318 275.675 192.271 278.246 193.393C280.817 194.516 283.357 194.383 283.918 193.096Z" fill="#8ED16F"/>
<path opacity="0.1" d="M283.918 193.096C284.48 191.81 282.85 189.857 280.279 188.735C277.708 187.613 275.168 187.746 274.607 189.032C274.045 190.318 275.675 192.271 278.246 193.393C280.817 194.516 283.357 194.383 283.918 193.096Z" fill="black"/>
<path d="M303.182 139.983L298.228 151.332L320.345 160.985L325.298 149.636L303.182 139.983Z" fill="#8ED16F"/>
<path d="M316.352 152.662C316.913 151.375 315.284 149.422 312.713 148.3C310.142 147.178 307.602 147.311 307.04 148.597C306.479 149.884 308.108 151.837 310.679 152.959C313.251 154.081 315.79 153.948 316.352 152.662Z" fill="#8ED16F"/>
<path opacity="0.1" d="M316.352 152.662C316.913 151.375 315.284 149.422 312.713 148.3C310.142 147.178 307.602 147.311 307.04 148.597C306.479 149.884 308.108 151.837 310.679 152.959C313.251 154.081 315.79 153.948 316.352 152.662Z" fill="black"/>
<path d="M342.466 181.059L330.314 183.44L334.956 207.121L347.108 204.739L342.466 181.059Z" fill="#8ED16F"/>
<path d="M339.535 199.104C340.912 198.834 341.591 196.383 341.052 193.63C340.512 190.877 338.958 188.864 337.58 189.134C336.203 189.404 335.524 191.855 336.063 194.608C336.603 197.361 338.157 199.374 339.535 199.104Z" fill="#8ED16F"/>
<path opacity="0.1" d="M339.535 199.104C340.912 198.834 341.591 196.383 341.052 193.63C340.512 190.877 338.958 188.864 337.58 189.134C336.203 189.404 335.524 191.855 336.063 194.608C336.603 197.361 338.157 199.374 339.535 199.104Z" fill="black"/>
<path d="M298.748 235.973L293.794 247.322L315.91 256.975L320.864 245.626L298.748 235.973Z" fill="#8ED16F"/>
<path d="M311.924 248.653C312.485 247.366 310.856 245.414 308.285 244.291C305.713 243.169 303.174 243.302 302.612 244.589C302.051 245.875 303.68 247.828 306.251 248.95C308.823 250.072 311.362 249.939 311.924 248.653Z" fill="#8ED16F"/>
<path opacity="0.1" d="M311.924 248.653C312.485 247.366 310.856 245.414 308.285 244.291C305.713 243.169 303.174 243.302 302.612 244.589C302.051 245.875 303.68 247.828 306.251 248.95C308.823 250.072 311.362 249.939 311.924 248.653Z" fill="black"/>
<path d="M244.101 225.247L239.148 236.597L261.264 246.25L266.218 234.901L244.101 225.247Z" fill="#8ED16F"/>
<path d="M257.274 237.928C257.836 236.642 256.207 234.689 253.635 233.567C251.064 232.445 248.525 232.578 247.963 233.864C247.402 235.15 249.031 237.103 251.602 238.225C254.173 239.348 256.713 239.215 257.274 237.928Z" fill="#8ED16F"/>
<path opacity="0.1" d="M257.274 237.928C257.836 236.642 256.207 234.689 253.635 233.567C251.064 232.445 248.525 232.578 247.963 233.864C247.402 235.15 249.031 237.103 251.602 238.225C254.173 239.348 256.713 239.215 257.274 237.928Z" fill="black"/>
</g>
<defs>
<linearGradient id="paint0_linear" x1="190.747" y1="271.836" x2="190.747" y2="-0.000141219" gradientUnits="userSpaceOnUse">
<stop stop-color="#808080" stop-opacity="0.25"/>
<stop offset="0.54" stop-color="#808080" stop-opacity="0.12"/>
<stop offset="1" stop-color="#808080" stop-opacity="0.1"/>
</linearGradient>
<linearGradient id="paint1_linear" x1="71485.4" y1="20549.1" x2="71485.4" y2="14356.6" gradientUnits="userSpaceOnUse">
<stop stop-color="#808080" stop-opacity="0.25"/>
<stop offset="0.54" stop-color="#808080" stop-opacity="0.12"/>
<stop offset="1" stop-color="#808080" stop-opacity="0.1"/>
</linearGradient>
<clipPath id="clip0">
<rect width="355.025" height="272" fill="white" transform="translate(0.975342)"/>
</clipPath>
</defs>
</svg>
