<svg width="300" height="270" viewBox="0 0 300 270" fill="none" xmlns="http://www.w3.org/2000/svg">
<g clip-path="url(#clip0)">
<path d="M297.368 102.928C297.261 102.928 297.156 102.895 297.068 102.834L151.511 1.52128C151.068 1.2144 150.541 1.0504 150.002 1.05132C149.463 1.05224 148.938 1.21803 148.496 1.52642L3.98691 102.833C3.87261 102.913 3.73115 102.944 3.59363 102.92C3.45612 102.896 3.33382 102.818 3.25365 102.704C3.17348 102.59 3.142 102.448 3.16613 102.311C3.19026 102.174 3.26804 102.051 3.38234 101.971L147.891 0.664965C148.51 0.23329 149.246 0.00124435 150.001 4.99061e-06C150.755 -0.00123437 151.492 0.22839 152.112 0.65803L297.67 101.97C297.762 102.034 297.831 102.126 297.867 102.232C297.903 102.338 297.904 102.453 297.871 102.56C297.837 102.666 297.77 102.76 297.68 102.826C297.59 102.892 297.48 102.928 297.368 102.928L297.368 102.928Z" fill="#3F3D56"/>
<path d="M12.2441 106.519L150.145 4.37598L289.093 113.787L157.25 191.901L85.6715 175.594L12.2441 106.519Z" fill="#E6E6E6"/>
<path d="M91.7138 240.148H23.5873C23.169 240.148 22.7547 240.066 22.368 239.907C21.9814 239.747 21.6301 239.513 21.3341 239.217C21.0381 238.922 20.8033 238.571 20.6431 238.185C20.4829 237.799 20.4004 237.385 20.4004 236.967C20.4004 236.549 20.4829 236.135 20.6431 235.748C20.8033 235.362 21.0381 235.011 21.3341 234.716C21.6301 234.42 21.9814 234.186 22.368 234.027C22.7547 233.867 23.169 233.785 23.5873 233.786H91.7138C92.1321 233.785 92.5464 233.867 92.9331 234.027C93.3197 234.186 93.671 234.42 93.967 234.716C94.263 235.011 94.4978 235.362 94.658 235.748C94.8183 236.135 94.9007 236.549 94.9007 236.967C94.9007 237.385 94.8183 237.799 94.658 238.185C94.4978 238.571 94.263 238.922 93.967 239.217C93.671 239.513 93.3197 239.747 92.9331 239.907C92.5464 240.066 92.1321 240.148 91.7138 240.148Z" fill="#0099FF"/>
<path d="M48.0296 226.471H23.5873C23.169 226.472 22.7547 226.39 22.368 226.23C21.9814 226.071 21.6301 225.837 21.3341 225.541C21.0381 225.246 20.8033 224.895 20.6431 224.509C20.4829 224.122 20.4004 223.708 20.4004 223.29C20.4004 222.872 20.4829 222.458 20.6431 222.072C20.8033 221.686 21.0381 221.335 21.3341 221.04C21.6301 220.744 21.9814 220.51 22.368 220.35C22.7547 220.191 23.169 220.109 23.5873 220.109H48.0296C48.4479 220.109 48.8622 220.191 49.2489 220.35C49.6355 220.51 49.9868 220.744 50.2828 221.04C50.5788 221.335 50.8136 221.686 50.9738 222.072C51.134 222.458 51.2165 222.872 51.2165 223.29C51.2165 223.708 51.134 224.122 50.9738 224.509C50.8136 224.895 50.5788 225.246 50.2828 225.541C49.9868 225.837 49.6355 226.071 49.2489 226.23C48.8622 226.39 48.4479 226.472 48.0296 226.471Z" fill="#0099FF"/>
<path d="M152.084 163.412C151.566 163.412 151.053 163.312 150.574 163.116L65.5264 127.847V17.4502C65.5275 16.474 65.916 15.5381 66.6067 14.8478C67.2974 14.1575 68.2338 13.7692 69.2106 13.7681H232.368C233.345 13.7692 234.282 14.1575 234.972 14.8478C235.663 15.5381 236.052 16.474 236.053 17.4502V127.924L235.893 127.993L153.64 163.099C153.147 163.306 152.618 163.412 152.084 163.412Z" fill="white"/>
<path d="M152.085 163.675C151.533 163.675 150.986 163.568 150.474 163.36L65.2637 128.023V17.4505C65.2649 16.4045 65.6811 15.4018 66.4211 14.6622C67.1612 13.9226 68.1645 13.5066 69.211 13.5054H232.369C233.415 13.5066 234.419 13.9226 235.159 14.6622C235.899 15.4018 236.315 16.4045 236.316 17.4505V128.098L153.744 163.341C153.219 163.562 152.654 163.675 152.085 163.675ZM66.3163 127.32L150.876 162.387C151.665 162.707 152.548 162.702 153.333 162.372L235.264 127.404V17.4505C235.263 16.6835 234.958 15.9481 234.415 15.4058C233.872 14.8634 233.136 14.5583 232.369 14.5574H69.2111C68.4436 14.5583 67.7078 14.8634 67.1652 15.4058C66.6225 15.9481 66.3172 16.6835 66.3163 17.4505L66.3163 127.32Z" fill="#3F3D56"/>
<path d="M296.316 101.876H296.21L235.789 127.661L153.121 162.941C152.798 163.077 152.451 163.148 152.101 163.15C151.751 163.151 151.403 163.084 151.079 162.952L65.7895 127.588L3.88415 101.918L3.78958 101.876H3.68421C2.70743 101.877 1.77096 102.265 1.08027 102.956C0.389585 103.646 0.00108382 104.582 0 105.558V265.467C0.00108521 266.443 0.389586 267.379 1.08027 268.069C1.77096 268.76 2.70743 269.148 3.68421 269.149H296.316C297.293 269.148 298.229 268.76 298.92 268.069C299.61 267.379 299.999 266.443 300 265.467V105.558C299.999 104.582 299.61 103.646 298.92 102.956C298.229 102.265 297.293 101.877 296.316 101.876ZM298.947 265.467C298.947 266.164 298.67 266.833 298.176 267.326C297.683 267.819 297.014 268.097 296.316 268.097H3.68421C2.98636 268.097 2.31717 267.819 1.82371 267.326C1.33026 266.833 1.05291 266.164 1.05263 265.467V105.558C1.05359 104.878 1.31756 104.225 1.78936 103.734C2.26116 103.244 2.90426 102.955 3.58424 102.928L65.7895 128.724L150.674 163.925C151.593 164.298 152.622 164.293 153.537 163.909L235.789 128.803L296.421 102.928C297.1 102.957 297.741 103.247 298.212 103.737C298.682 104.227 298.946 104.879 298.947 105.558V265.467Z" fill="#3F3D56"/>
<path d="M151.234 132.107C148.094 132.113 145.038 131.098 142.526 129.216L142.37 129.099L109.575 104.004C108.056 102.841 106.781 101.391 105.823 99.7352C104.866 98.0798 104.243 96.252 103.992 94.3562C103.741 92.4605 103.866 90.5339 104.36 88.6864C104.854 86.8389 105.707 85.1067 106.871 83.5888C108.035 82.0708 109.486 80.7968 111.142 79.8395C112.799 78.8822 114.628 78.2603 116.524 78.0094C118.421 77.7584 120.349 77.8833 122.197 78.3769C124.046 78.8706 125.779 79.7233 127.298 80.8863L148.54 97.1653L198.739 31.736C199.903 30.2184 201.355 28.9449 203.012 27.9882C204.669 27.0314 206.498 26.4102 208.395 26.1599C210.292 25.9096 212.219 26.0353 214.068 26.5296C215.916 27.0239 217.649 27.8773 219.167 29.0409L218.855 29.4645L219.175 29.0471C222.238 31.3997 224.242 34.8705 224.748 38.6981C225.253 42.5256 224.219 46.3972 221.872 49.4636L162.826 126.424C161.46 128.198 159.704 129.633 157.694 130.618C155.684 131.604 153.473 132.113 151.234 132.107Z" fill="#FF0099"/>
</g>
<defs>
<clipPath id="clip0">
<rect width="300" height="269.149" fill="white"/>
</clipPath>
</defs>
</svg>
